<svg xmlns="http://www.w3.org/2000/svg" xmlns:xlink="http://www.w3.org/1999/xlink" width="80" zoomAndPan="magnify" viewBox="0 0 60 60" height="80" preserveAspectRatio="xMidYMid meet" version="1.0"><path fill="#11d6f0" d="M 26.03125 1.621094 C 26.125 1.621094 26.21875 1.621094 26.316406 1.621094 C 26.628906 1.617188 26.941406 1.617188 27.25 1.617188 C 27.46875 1.617188 27.6875 1.617188 27.902344 1.613281 C 28.359375 1.613281 28.816406 1.613281 29.269531 1.613281 C 29.851562 1.613281 30.433594 1.609375 31.015625 1.605469 C 31.464844 1.601562 31.914062 1.601562 32.363281 1.601562 C 32.578125 1.601562 32.789062 1.601562 33.003906 1.601562 C 33.304688 1.597656 33.605469 1.597656 33.90625 1.597656 C 33.996094 1.597656 34.082031 1.597656 34.171875 1.59375 C 34.960938 1.601562 35.734375 1.773438 36.371094 2.261719 C 36.980469 2.886719 37.101562 3.550781 37.234375 4.375 C 37.273438 4.589844 37.3125 4.804688 37.351562 5.015625 C 37.414062 5.351562 37.46875 5.683594 37.523438 6.019531 C 37.660156 7.238281 37.660156 7.238281 38.269531 8.25 C 38.761719 8.539062 39.292969 8.660156 39.84375 8.789062 C 41.480469 9.480469 42.9375 10.59375 44.296875 11.71875 C 44.898438 11.511719 45.425781 11.175781 45.964844 10.847656 C 46.070312 10.785156 46.175781 10.722656 46.28125 10.65625 C 47.007812 10.214844 47.722656 9.761719 48.433594 9.300781 C 49.144531 8.832031 49.867188 8.382812 50.589844 7.933594 C 51.527344 7.347656 52.460938 6.761719 53.394531 6.167969 C 53.5 6.097656 53.605469 6.03125 53.714844 5.960938 C 54.183594 5.664062 54.65625 5.363281 55.121094 5.058594 C 55.238281 4.984375 55.238281 4.984375 55.355469 4.90625 C 55.550781 4.777344 55.75 4.648438 55.949219 4.519531 C 56.449219 4.214844 56.839844 4.167969 57.421875 4.21875 C 57.777344 4.453125 57.871094 4.59375 57.957031 5.011719 C 57.78125 6.035156 56.929688 6.765625 56.25 7.5 C 56.125 7.644531 56 7.789062 55.875 7.933594 C 55.398438 8.480469 54.902344 9.007812 54.40625 9.535156 C 54.023438 9.945312 53.640625 10.355469 53.269531 10.773438 C 52.738281 11.367188 52.191406 11.945312 51.648438 12.527344 C 50.515625 13.730469 49.398438 14.953125 48.28125 16.171875 C 48.375 16.347656 48.472656 16.523438 48.566406 16.699219 C 48.632812 16.816406 48.695312 16.9375 48.761719 17.058594 C 48.914062 17.332031 49.066406 17.605469 49.226562 17.875 C 49.753906 18.785156 50.230469 19.710938 50.667969 20.667969 C 50.71875 20.773438 50.765625 20.878906 50.816406 20.988281 C 51.050781 21.511719 51.238281 22.007812 51.375 22.5625 C 51.449219 22.847656 51.449219 22.847656 51.5625 23.085938 C 51.890625 23.269531 51.890625 23.269531 52.265625 23.320312 C 54.28125 24.40625 55.453125 26.210938 56.132812 28.359375 C 56.730469 30.371094 56.871094 32.425781 56.910156 34.511719 C 56.910156 34.613281 56.914062 34.714844 56.914062 34.816406 C 57.253906 51.070312 57.253906 51.070312 53.320312 55.429688 C 51.683594 57.121094 48.925781 58.347656 46.5625 58.390625 C 46.46875 58.394531 46.371094 58.394531 46.273438 58.394531 C 46.183594 58.398438 46.089844 58.402344 45.992188 58.40625 C 44.664062 58.421875 43.523438 57.769531 42.371094 57.164062 C 42.242188 57.097656 42.113281 57.03125 41.980469 56.960938 C 39.242188 55.503906 39.242188 55.503906 38.789062 54.140625 C 38.761719 53.878906 38.742188 53.617188 38.722656 53.355469 C 38.707031 53.148438 38.707031 53.148438 38.695312 52.9375 C 38.6875 52.832031 38.679688 52.726562 38.671875 52.617188 C 38.628906 52.675781 38.589844 52.734375 38.546875 52.792969 C 37.84375 53.757812 37.140625 54.597656 35.945312 54.914062 C 35.535156 54.972656 35.125 54.972656 34.710938 54.96875 C 34.628906 54.96875 34.546875 54.96875 34.464844 54.964844 C 34.265625 54.964844 34.066406 54.964844 33.867188 54.960938 C 33.871094 55.070312 33.875 55.179688 33.878906 55.296875 C 33.882812 55.441406 33.886719 55.585938 33.890625 55.738281 C 33.894531 55.953125 33.894531 55.953125 33.902344 56.175781 C 33.851562 56.792969 33.628906 57.265625 33.164062 57.679688 C 32.238281 58.398438 31.058594 58.414062 29.933594 58.402344 C 29.808594 58.40625 29.6875 58.40625 29.558594 58.40625 C 28.480469 58.402344 27.453125 58.25 26.601562 57.539062 C 26.160156 56.96875 26 56.542969 26 55.832031 C 26 55.742188 26 55.652344 26 55.5625 C 26.015625 55.3125 26.015625 55.3125 26.132812 54.960938 C 26.007812 54.964844 25.886719 54.96875 25.757812 54.972656 C 24.277344 55.007812 23.265625 54.851562 22.148438 53.789062 C 21.855469 53.449219 21.585938 53.101562 21.328125 52.734375 C 21.316406 52.84375 21.304688 52.953125 21.292969 53.070312 C 21.144531 54.308594 20.851562 54.953125 19.902344 55.765625 C 17.800781 57.339844 15.199219 58.628906 12.539062 58.359375 C 11.734375 58.207031 10.964844 57.9375 10.195312 57.65625 C 10.117188 57.628906 10.035156 57.597656 9.953125 57.570312 C 7.917969 56.820312 6.332031 55.445312 5.273438 53.554688 C 5.214844 53.449219 5.152344 53.34375 5.089844 53.234375 C 2.839844 49.019531 2.988281 43.9375 3.007812 39.296875 C 3.011719 38.824219 3.011719 38.351562 3.007812 37.878906 C 3 27.722656 3 27.722656 6.136719 24.398438 C 6.703125 23.851562 7.351562 23.398438 8.085938 23.109375 C 8.394531 22.921875 8.445312 22.761719 8.574219 22.425781 C 8.617188 22.3125 8.660156 22.199219 8.707031 22.085938 C 8.753906 21.964844 8.800781 21.839844 8.847656 21.714844 C 9.261719 20.683594 9.707031 19.683594 10.226562 18.699219 C 10.28125 18.589844 10.335938 18.480469 10.394531 18.371094 C 10.71875 17.757812 11.070312 17.195312 11.484375 16.640625 C 11.625 16.414062 11.625 16.414062 11.578125 16.160156 C 11.421875 15.789062 11.117188 15.539062 10.824219 15.265625 C 10.347656 14.808594 9.902344 14.335938 9.46875 13.835938 C 9.109375 13.425781 8.734375 13.03125 8.355469 12.632812 C 7.613281 11.847656 6.878906 11.058594 6.144531 10.261719 C 5.910156 10.007812 5.679688 9.753906 5.445312 9.5 C 5.269531 9.3125 5.09375 9.121094 4.914062 8.929688 C 4.6875 8.679688 4.457031 8.433594 4.226562 8.1875 C 2.078125 5.871094 2.078125 5.871094 2.074219 5.03125 C 2.109375 4.570312 2.109375 4.570312 2.234375 4.335938 C 2.613281 4.140625 2.855469 4.164062 3.28125 4.21875 C 4.226562 4.554688 5.070312 5.191406 5.902344 5.738281 C 6.445312 6.097656 6.996094 6.445312 7.542969 6.789062 C 7.636719 6.847656 7.730469 6.90625 7.824219 6.96875 C 8.015625 7.085938 8.203125 7.203125 8.390625 7.324219 C 8.664062 7.496094 8.9375 7.667969 9.207031 7.839844 C 10.007812 8.34375 10.804688 8.847656 11.605469 9.347656 C 11.726562 9.425781 11.847656 9.5 11.972656 9.578125 C 12.214844 9.730469 12.460938 9.878906 12.703125 10.03125 C 13.21875 10.351562 13.734375 10.675781 14.234375 11.019531 C 14.308594 11.070312 14.382812 11.121094 14.460938 11.171875 C 14.652344 11.304688 14.84375 11.4375 15.035156 11.574219 C 15.339844 11.75 15.339844 11.75 15.652344 11.65625 C 15.96875 11.464844 16.230469 11.253906 16.507812 11.007812 C 17.890625 9.855469 19.644531 8.8125 21.367188 8.277344 C 21.71875 8.148438 21.777344 8.125 21.964844 7.777344 C 21.992188 7.648438 22.019531 7.515625 22.046875 7.382812 C 22.0625 7.308594 22.078125 7.234375 22.09375 7.160156 C 22.15625 6.882812 22.210938 6.605469 22.265625 6.328125 C 22.347656 5.925781 22.433594 5.523438 22.519531 5.121094 C 22.578125 4.839844 22.636719 4.5625 22.691406 4.28125 C 23.050781 2.566406 23.050781 2.566406 23.792969 2.066406 C 24.515625 1.671875 25.21875 1.621094 26.03125 1.621094 Z M 24.492188 2.695312 C 24.984375 3.277344 25.488281 3.851562 26.003906 4.417969 C 26.144531 4.574219 26.285156 4.730469 26.417969 4.898438 C 26.566406 5.082031 26.566406 5.082031 26.835938 5.273438 C 27.109375 5.238281 27.382812 5.199219 27.65625 5.15625 C 28.015625 5.140625 28.375 5.140625 28.738281 5.140625 C 28.839844 5.140625 28.941406 5.140625 29.042969 5.140625 C 29.257812 5.140625 29.46875 5.140625 29.683594 5.140625 C 30.007812 5.140625 30.332031 5.140625 30.65625 5.140625 C 30.863281 5.140625 31.070312 5.140625 31.277344 5.140625 C 31.375 5.140625 31.472656 5.140625 31.570312 5.140625 C 31.976562 5.140625 32.335938 5.15625 32.734375 5.238281 C 33.046875 5.304688 33.046875 5.304688 33.277344 5.136719 C 33.378906 5.035156 33.378906 5.035156 33.480469 4.929688 C 33.554688 4.851562 33.628906 4.777344 33.703125 4.699219 C 33.78125 4.617188 33.855469 4.535156 33.933594 4.453125 C 34.007812 4.375 34.085938 4.296875 34.164062 4.21875 C 34.621094 3.738281 35.019531 3.246094 35.390625 2.695312 C 34.882812 2.445312 34.421875 2.425781 33.867188 2.429688 C 33.773438 2.429688 33.683594 2.429688 33.585938 2.429688 C 33.28125 2.429688 32.976562 2.429688 32.671875 2.429688 C 32.457031 2.429688 32.246094 2.429688 32.03125 2.429688 C 31.585938 2.429688 31.140625 2.429688 30.695312 2.429688 C 30.121094 2.433594 29.550781 2.429688 28.980469 2.429688 C 28.542969 2.429688 28.101562 2.429688 27.664062 2.429688 C 27.453125 2.429688 27.242188 2.429688 27.03125 2.429688 C 26.738281 2.429688 26.441406 2.429688 26.148438 2.429688 C 26.0625 2.429688 25.976562 2.429688 25.886719 2.429688 C 25.378906 2.433594 24.964844 2.507812 24.492188 2.695312 Z M 24.023438 3.046875 C 23.726562 3.582031 23.5625 4.109375 23.429688 4.703125 C 23.40625 4.792969 23.386719 4.882812 23.367188 4.976562 C 23.324219 5.167969 23.28125 5.359375 23.238281 5.546875 C 23.175781 5.835938 23.105469 6.125 23.039062 6.410156 C 23 6.597656 22.957031 6.78125 22.914062 6.96875 C 22.894531 7.050781 22.875 7.136719 22.855469 7.222656 C 22.621094 8.3125 22.898438 9.277344 23.195312 10.332031 C 23.230469 10.453125 23.261719 10.574219 23.296875 10.695312 C 23.40625 11.078125 23.511719 11.460938 23.621094 11.84375 C 23.695312 12.105469 23.765625 12.363281 23.839844 12.625 C 24.015625 13.261719 24.195312 13.894531 24.375 14.53125 C 24.683594 14.222656 24.6875 14.003906 24.769531 13.578125 C 24.800781 13.425781 24.828125 13.273438 24.859375 13.117188 C 24.875 13.035156 24.890625 12.957031 24.90625 12.871094 C 24.953125 12.617188 25.003906 12.363281 25.050781 12.109375 C 25.15625 11.566406 25.261719 11.023438 25.363281 10.480469 C 25.484375 9.855469 25.601562 9.230469 25.722656 8.605469 C 25.773438 8.355469 25.820312 8.105469 25.867188 7.855469 C 26.019531 7.050781 26.199219 6.277344 26.484375 5.507812 C 26.382812 5.410156 26.285156 5.308594 26.179688 5.207031 C 25.523438 4.554688 24.871094 3.910156 24.277344 3.199219 C 24.234375 3.148438 24.1875 3.097656 24.140625 3.046875 C 24.101562 3.046875 24.0625 3.046875 24.023438 3.046875 Z M 35.742188 3.046875 C 35.484375 3.324219 35.222656 3.597656 34.964844 3.875 C 34.894531 3.953125 34.820312 4.027344 34.746094 4.109375 C 34.285156 4.601562 33.835938 5.105469 33.398438 5.625 C 33.429688 5.6875 33.457031 5.75 33.488281 5.816406 C 33.882812 6.726562 34.066406 7.660156 34.246094 8.628906 C 34.28125 8.804688 34.3125 8.976562 34.347656 9.152344 C 34.433594 9.605469 34.519531 10.0625 34.605469 10.515625 C 34.695312 10.984375 34.78125 11.449219 34.871094 11.914062 C 35.046875 12.824219 35.21875 13.738281 35.390625 14.648438 C 36.777344 12.570312 37.519531 9.054688 37.09375 6.625 C 37.027344 6.292969 36.953125 5.96875 36.871094 5.640625 C 36.84375 5.535156 36.816406 5.429688 36.789062 5.320312 C 36.503906 4.054688 36.503906 4.054688 35.742188 3.046875 Z M 2.929688 5.039062 C 3.300781 6.117188 4.226562 6.945312 5.027344 7.722656 C 5.246094 7.941406 5.449219 8.160156 5.648438 8.394531 C 6.113281 8.9375 6.605469 9.457031 7.09375 9.980469 C 7.542969 10.460938 7.992188 10.941406 8.4375 11.425781 C 8.941406 11.976562 9.453125 12.519531 9.960938 13.066406 C 10.46875 13.613281 10.980469 14.15625 11.484375 14.707031 C 12.625 15.945312 13.777344 17.171875 14.929688 18.402344 C 15.488281 19 16.050781 19.597656 16.609375 20.199219 C 17.105469 20.730469 17.605469 21.265625 18.105469 21.796875 C 18.605469 22.328125 19.105469 22.863281 19.601562 23.394531 C 19.738281 23.539062 19.871094 23.683594 20.003906 23.828125 C 20.367188 24.21875 20.730469 24.609375 21.09375 25 C 21.25 25.167969 21.40625 25.335938 21.5625 25.503906 C 21.632812 25.582031 21.707031 25.660156 21.78125 25.738281 C 21.882812 25.847656 21.882812 25.847656 21.988281 25.960938 C 22.046875 26.027344 22.105469 26.089844 22.167969 26.15625 C 22.457031 26.441406 22.769531 26.695312 23.085938 26.953125 C 23.316406 25.9375 23.546875 24.921875 23.773438 23.90625 C 23.878906 23.433594 23.984375 22.964844 24.09375 22.492188 C 24.195312 22.035156 24.296875 21.582031 24.402344 21.125 C 24.441406 20.953125 24.480469 20.777344 24.519531 20.605469 C 24.574219 20.363281 24.628906 20.117188 24.683594 19.875 C 24.714844 19.738281 24.746094 19.597656 24.777344 19.457031 C 24.859375 19.085938 24.859375 19.085938 24.84375 18.632812 C 24.683594 18.472656 24.683594 18.472656 24.460938 18.355469 C 24.378906 18.304688 24.292969 18.253906 24.207031 18.203125 C 24.113281 18.152344 24.023438 18.101562 23.929688 18.046875 C 23.730469 17.933594 23.535156 17.816406 23.339844 17.699219 C 23.238281 17.640625 23.140625 17.582031 23.035156 17.523438 C 22.570312 17.246094 22.117188 16.960938 21.664062 16.671875 C 20.824219 16.136719 19.980469 15.609375 19.136719 15.082031 C 19.019531 15.007812 18.902344 14.933594 18.78125 14.859375 C 18.417969 14.632812 18.058594 14.40625 17.695312 14.179688 C 16.296875 13.304688 14.898438 12.433594 13.503906 11.550781 C 12.753906 11.074219 12 10.605469 11.25 10.136719 C 10.125 9.433594 9.003906 8.730469 7.886719 8.023438 C 7.613281 7.847656 7.335938 7.675781 7.0625 7.5 C 6.925781 7.414062 6.925781 7.414062 6.78125 7.324219 C 6.597656 7.207031 6.414062 7.09375 6.230469 6.976562 C 5.738281 6.667969 5.25 6.355469 4.765625 6.042969 C 4.609375 5.945312 4.609375 5.945312 4.453125 5.847656 C 4.257812 5.71875 4.058594 5.59375 3.863281 5.46875 C 3.773438 5.410156 3.6875 5.355469 3.597656 5.296875 C 3.519531 5.246094 3.441406 5.199219 3.359375 5.144531 C 3.167969 5.019531 3.167969 5.019531 2.929688 5.039062 Z M 56.835938 5.039062 C 55.9375 5.460938 55.101562 6.066406 54.273438 6.609375 C 53.535156 7.089844 52.792969 7.554688 52.046875 8.019531 C 51.1875 8.554688 50.328125 9.089844 49.476562 9.632812 C 49.386719 9.6875 49.296875 9.746094 49.203125 9.804688 C 48.933594 9.972656 48.667969 10.144531 48.398438 10.3125 C 46.601562 11.449219 44.800781 12.578125 42.996094 13.703125 C 41.71875 14.5 40.441406 15.296875 39.171875 16.105469 C 38.640625 16.441406 38.109375 16.773438 37.574219 17.101562 C 37.382812 17.21875 37.382812 17.21875 37.1875 17.339844 C 36.9375 17.496094 36.6875 17.648438 36.4375 17.804688 C 36.320312 17.875 36.207031 17.945312 36.089844 18.019531 C 35.9375 18.109375 35.9375 18.109375 35.785156 18.207031 C 35.484375 18.414062 35.261719 18.578125 35.039062 18.867188 C 35.039062 19.242188 35.039062 19.242188 35.148438 19.652344 C 35.164062 19.730469 35.179688 19.808594 35.199219 19.886719 C 35.257812 20.144531 35.316406 20.398438 35.378906 20.65625 C 35.417969 20.835938 35.457031 21.011719 35.5 21.191406 C 35.605469 21.660156 35.710938 22.125 35.820312 22.59375 C 35.933594 23.070312 36.039062 23.546875 36.148438 24.027344 C 36.363281 24.964844 36.578125 25.898438 36.796875 26.835938 C 37.183594 26.875 37.183594 26.875 37.480469 26.515625 C 37.613281 26.371094 37.75 26.222656 37.878906 26.074219 C 38.027344 25.910156 38.175781 25.75 38.324219 25.585938 C 38.402344 25.503906 38.480469 25.417969 38.558594 25.332031 C 38.921875 24.929688 39.296875 24.535156 39.667969 24.140625 C 39.816406 23.984375 39.964844 23.824219 40.109375 23.667969 C 40.21875 23.550781 40.21875 23.550781 40.332031 23.433594 C 40.675781 23.0625 41.023438 22.695312 41.367188 22.324219 C 42.007812 21.640625 42.648438 20.953125 43.289062 20.269531 C 43.78125 19.746094 44.273438 19.21875 44.765625 18.691406 C 45.332031 18.085938 45.898438 17.480469 46.464844 16.875 C 47.601562 15.664062 48.734375 14.453125 49.859375 13.230469 C 50.308594 12.746094 50.757812 12.261719 51.210938 11.777344 C 51.898438 11.042969 52.582031 10.304688 53.265625 9.5625 C 53.5 9.308594 53.734375 9.054688 53.96875 8.796875 C 54.089844 8.671875 54.207031 8.542969 54.324219 8.414062 C 54.609375 8.105469 54.894531 7.796875 55.1875 7.488281 C 55.878906 6.75 56.496094 5.992188 57.070312 5.15625 C 56.953125 5.097656 56.953125 5.097656 56.835938 5.039062 Z M 26.953125 5.859375 C 26.589844 6.410156 26.40625 6.875 26.28125 7.527344 C 26.265625 7.605469 26.25 7.6875 26.230469 7.769531 C 26.179688 8.03125 26.128906 8.292969 26.078125 8.554688 C 26.042969 8.738281 26.007812 8.921875 25.972656 9.105469 C 25.894531 9.488281 25.820312 9.875 25.75 10.257812 C 25.652344 10.75 25.558594 11.238281 25.460938 11.730469 C 25.386719 12.109375 25.3125 12.488281 25.238281 12.867188 C 25.203125 13.046875 25.167969 13.230469 25.132812 13.410156 C 25.082031 13.664062 25.035156 13.917969 24.988281 14.167969 C 24.945312 14.386719 24.945312 14.386719 24.902344 14.605469 C 24.828125 15.050781 24.828125 15.050781 24.84375 15.703125 C 28.246094 15.703125 31.648438 15.703125 35.15625 15.703125 C 34.976562 14.523438 34.976562 14.523438 34.773438 13.351562 C 34.746094 13.210938 34.71875 13.066406 34.691406 12.921875 C 34.660156 12.773438 34.632812 12.625 34.605469 12.46875 C 34.589844 12.394531 34.574219 12.316406 34.558594 12.234375 C 34.480469 11.824219 34.402344 11.414062 34.324219 11.003906 C 34.242188 10.585938 34.160156 10.164062 34.082031 9.746094 C 34.019531 9.417969 33.957031 9.089844 33.894531 8.765625 C 33.851562 8.535156 33.808594 8.304688 33.765625 8.074219 C 33.554688 6.832031 33.554688 6.832031 32.871094 5.816406 C 32.34375 5.472656 31.855469 5.488281 31.246094 5.484375 C 31.152344 5.484375 31.054688 5.484375 30.953125 5.480469 C 30.75 5.480469 30.546875 5.480469 30.34375 5.480469 C 30.03125 5.480469 29.722656 5.476562 29.410156 5.472656 C 29.210938 5.46875 29.015625 5.46875 28.816406 5.46875 C 28.675781 5.46875 28.675781 5.46875 28.535156 5.464844 C 27.9375 5.46875 27.480469 5.542969 26.953125 5.859375 Z M 16.289062 12.304688 C 16.859375 12.796875 17.5 13.175781 18.140625 13.570312 C 18.394531 13.730469 18.648438 13.886719 18.902344 14.046875 C 19.035156 14.125 19.164062 14.207031 19.296875 14.289062 C 19.910156 14.667969 20.519531 15.050781 21.128906 15.433594 C 21.246094 15.503906 21.363281 15.578125 21.480469 15.652344 C 22.042969 16 22.601562 16.351562 23.160156 16.707031 C 23.3125 16.804688 23.3125 16.804688 23.472656 16.90625 C 23.664062 17.027344 23.855469 17.152344 24.046875 17.273438 C 24.132812 17.328125 24.214844 17.382812 24.304688 17.4375 C 24.414062 17.507812 24.414062 17.507812 24.527344 17.582031 C 24.742188 17.714844 24.742188 17.714844 25.078125 17.8125 C 25.117188 17.621094 25.15625 17.425781 25.195312 17.226562 C 28.328125 17.265625 31.460938 17.304688 34.6875 17.34375 C 34.726562 17.5 34.765625 17.652344 34.804688 17.8125 C 35.222656 17.65625 35.585938 17.472656 35.964844 17.234375 C 36.074219 17.164062 36.183594 17.09375 36.300781 17.023438 C 36.417969 16.945312 36.535156 16.871094 36.65625 16.792969 C 36.910156 16.632812 37.164062 16.472656 37.417969 16.316406 C 37.550781 16.234375 37.679688 16.152344 37.8125 16.066406 C 38.304688 15.753906 38.800781 15.449219 39.292969 15.140625 C 39.757812 14.851562 40.21875 14.5625 40.679688 14.273438 C 41.011719 14.066406 41.34375 13.859375 41.675781 13.652344 C 41.878906 13.523438 42.082031 13.398438 42.28125 13.273438 C 42.375 13.214844 42.46875 13.15625 42.5625 13.097656 C 42.648438 13.042969 42.730469 12.992188 42.820312 12.9375 C 42.894531 12.890625 42.964844 12.84375 43.042969 12.796875 C 43.25 12.652344 43.417969 12.488281 43.59375 12.304688 C 42.324219 11.070312 39.71875 9.023438 37.851562 9.023438 C 37.589844 9.933594 37.332031 10.84375 37.074219 11.753906 C 36.953125 12.179688 36.832031 12.601562 36.710938 13.023438 C 36.59375 13.433594 36.476562 13.839844 36.363281 14.25 C 36.316406 14.402344 36.273438 14.558594 36.226562 14.714844 C 36.164062 14.933594 36.105469 15.152344 36.042969 15.371094 C 35.988281 15.554688 35.988281 15.554688 35.933594 15.746094 C 35.84375 16.058594 35.84375 16.058594 35.859375 16.40625 C 32.03125 16.40625 28.203125 16.40625 24.257812 16.40625 C 24.054688 15.859375 23.863281 15.351562 23.707031 14.796875 C 23.671875 14.671875 23.636719 14.550781 23.601562 14.421875 C 23.566406 14.292969 23.527344 14.160156 23.492188 14.027344 C 23.453125 13.890625 23.414062 13.753906 23.375 13.613281 C 23.253906 13.183594 23.132812 12.75 23.011719 12.320312 C 22.890625 11.886719 22.769531 11.449219 22.648438 11.015625 C 22.570312 10.746094 22.496094 10.476562 22.421875 10.207031 C 22.386719 10.085938 22.351562 9.964844 22.316406 9.839844 C 22.289062 9.734375 22.257812 9.625 22.226562 9.515625 C 22.15625 9.257812 22.15625 9.257812 22.03125 9.023438 C 20.097656 9.023438 17.695312 11.066406 16.289062 12.304688 Z M 12.304688 16.875 C 11.929688 17.449219 11.589844 18.039062 11.25 18.632812 C 11.207031 18.710938 11.160156 18.785156 11.117188 18.863281 C 10.839844 19.34375 10.589844 19.832031 10.34375 20.328125 C 10.246094 20.523438 10.144531 20.71875 10.042969 20.914062 C 8.875 23.183594 8.871094 25.269531 8.929688 27.761719 C 8.9375 28.160156 8.941406 28.558594 8.945312 28.957031 C 8.945312 29.441406 8.953125 29.925781 8.960938 30.410156 C 8.960938 30.542969 8.960938 30.542969 8.960938 30.679688 C 8.988281 32.410156 9.085938 34.160156 9.558594 35.835938 C 9.585938 35.945312 9.617188 36.054688 9.648438 36.167969 C 9.949219 37.269531 10.292969 38.363281 10.644531 39.449219 C 11.191406 41.152344 11.5 42.800781 11.507812 44.585938 C 11.507812 44.71875 11.511719 44.847656 11.511719 44.984375 C 11.515625 45.417969 11.519531 45.847656 11.519531 46.28125 C 11.523438 46.582031 11.527344 46.882812 11.527344 47.183594 C 11.535156 47.894531 11.539062 48.601562 11.546875 49.3125 C 11.550781 50.121094 11.558594 50.929688 11.5625 51.734375 C 11.578125 53.398438 11.589844 55.058594 11.601562 56.71875 C 11.898438 56.570312 12.195312 56.425781 12.492188 56.277344 C 12.617188 56.214844 12.617188 56.214844 12.746094 56.152344 C 14.363281 55.363281 14.363281 55.363281 15.480469 54.007812 C 15.625 53.546875 15.617188 53.121094 15.617188 52.644531 C 15.617188 52.539062 15.617188 52.4375 15.617188 52.332031 C 15.617188 51.996094 15.617188 51.65625 15.617188 51.320312 C 15.617188 51.082031 15.617188 50.847656 15.617188 50.613281 C 15.617188 50.117188 15.617188 49.625 15.617188 49.128906 C 15.613281 48.5 15.617188 47.867188 15.617188 47.234375 C 15.617188 46.75 15.617188 46.261719 15.617188 45.773438 C 15.617188 45.542969 15.617188 45.308594 15.617188 45.078125 C 15.617188 44.75 15.617188 44.421875 15.617188 44.097656 C 15.617188 44.003906 15.617188 43.90625 15.617188 43.808594 C 15.605469 42.175781 15.042969 41.25 13.898438 40.121094 C 13.558594 39.792969 13.210938 39.480469 12.847656 39.175781 C 12.066406 38.507812 11.546875 37.660156 11.460938 36.625 C 11.449219 36.285156 11.445312 35.949219 11.445312 35.609375 C 11.445312 35.488281 11.445312 35.363281 11.441406 35.234375 C 11.441406 34.972656 11.441406 34.710938 11.441406 34.449219 C 11.441406 34.050781 11.4375 33.652344 11.433594 33.253906 C 11.429688 33 11.429688 32.746094 11.429688 32.492188 C 11.429688 32.371094 11.425781 32.253906 11.425781 32.132812 C 11.429688 31.417969 11.484375 30.800781 11.953125 30.234375 C 12.246094 30.015625 12.550781 29.890625 12.890625 29.765625 C 12.988281 29.726562 13.089844 29.6875 13.191406 29.648438 C 13.535156 29.515625 13.882812 29.390625 14.230469 29.265625 C 14.355469 29.21875 14.484375 29.171875 14.617188 29.125 C 15.023438 28.976562 15.433594 28.828125 15.84375 28.683594 C 16.375 28.488281 16.910156 28.292969 17.445312 28.101562 C 17.574219 28.054688 17.703125 28.007812 17.835938 27.957031 C 19.042969 27.519531 20.246094 27.0625 21.445312 26.601562 C 20.90625 25.96875 20.90625 25.96875 20.347656 25.351562 C 20.277344 25.28125 20.210938 25.207031 20.140625 25.132812 C 20.066406 25.054688 19.996094 24.980469 19.921875 24.902344 C 19.765625 24.738281 19.609375 24.570312 19.453125 24.40625 C 19.375 24.320312 19.296875 24.238281 19.214844 24.152344 C 18.863281 23.777344 18.515625 23.402344 18.164062 23.027344 C 17.597656 22.421875 17.03125 21.816406 16.464844 21.210938 C 15.894531 20.601562 15.320312 19.992188 14.75 19.378906 C 14.683594 19.308594 14.617188 19.238281 14.550781 19.164062 C 14.203125 18.792969 13.855469 18.417969 13.507812 18.039062 C 13.4375 17.964844 13.367188 17.886719 13.292969 17.808594 C 13.160156 17.664062 13.023438 17.515625 12.890625 17.367188 C 12.738281 17.203125 12.578125 17.039062 12.421875 16.875 C 12.382812 16.875 12.34375 16.875 12.304688 16.875 Z M 47.460938 16.875 C 47.320312 17.027344 47.179688 17.179688 47.042969 17.335938 C 46.542969 17.898438 46.03125 18.449219 45.511719 19 C 45.433594 19.085938 45.351562 19.167969 45.269531 19.257812 C 45.105469 19.433594 44.9375 19.605469 44.773438 19.78125 C 44.394531 20.183594 44.015625 20.585938 43.636719 20.992188 C 43.566406 21.066406 43.492188 21.144531 43.417969 21.226562 C 42.863281 21.820312 42.308594 22.414062 41.753906 23.007812 C 41.390625 23.394531 41.03125 23.78125 40.667969 24.164062 C 40.589844 24.25 40.511719 24.332031 40.433594 24.417969 C 40.285156 24.574219 40.136719 24.730469 39.988281 24.886719 C 39.496094 25.410156 39.023438 25.941406 38.554688 26.484375 C 38.796875 26.726562 38.9375 26.792969 39.253906 26.90625 C 39.398438 26.960938 39.398438 26.960938 39.546875 27.015625 C 39.652344 27.054688 39.757812 27.09375 39.867188 27.132812 C 39.976562 27.171875 40.085938 27.214844 40.199219 27.253906 C 40.4375 27.339844 40.671875 27.429688 40.910156 27.515625 C 41.28125 27.648438 41.648438 27.785156 42.015625 27.921875 C 43.109375 28.324219 44.199219 28.71875 45.300781 29.105469 C 45.539062 29.1875 45.777344 29.273438 46.015625 29.359375 C 46.234375 29.433594 46.449219 29.507812 46.667969 29.582031 C 47.507812 29.878906 47.988281 30.121094 48.398438 30.9375 C 48.410156 31.132812 48.417969 31.328125 48.421875 31.527344 C 48.421875 31.648438 48.425781 31.773438 48.425781 31.898438 C 48.433594 32.464844 48.4375 33.027344 48.441406 33.59375 C 48.441406 33.890625 48.445312 34.1875 48.449219 34.488281 C 48.457031 34.917969 48.457031 35.34375 48.460938 35.773438 C 48.460938 35.90625 48.464844 36.039062 48.46875 36.175781 C 48.464844 37.246094 48.179688 38.054688 47.453125 38.855469 C 47.328125 38.980469 47.203125 39.101562 47.074219 39.222656 C 46.972656 39.320312 46.972656 39.320312 46.871094 39.417969 C 46.511719 39.761719 46.148438 40.089844 45.769531 40.40625 C 45.007812 41.058594 44.480469 41.773438 44.390625 42.792969 C 44.382812 43.085938 44.382812 43.375 44.382812 43.667969 C 44.382812 43.777344 44.378906 43.886719 44.378906 44 C 44.378906 44.363281 44.378906 44.722656 44.378906 45.085938 C 44.378906 45.335938 44.378906 45.589844 44.378906 45.84375 C 44.375 46.371094 44.375 46.898438 44.378906 47.425781 C 44.378906 48.101562 44.375 48.777344 44.371094 49.453125 C 44.371094 49.976562 44.371094 50.496094 44.371094 51.015625 C 44.371094 51.265625 44.371094 51.515625 44.371094 51.765625 C 44.367188 52.113281 44.367188 52.460938 44.371094 52.808594 C 44.371094 52.914062 44.367188 53.015625 44.367188 53.121094 C 44.375 53.804688 44.503906 54.179688 44.949219 54.710938 C 45.691406 55.410156 47.328125 56.71875 48.398438 56.71875 C 48.398438 56.648438 48.398438 56.578125 48.398438 56.507812 C 48.402344 54.789062 48.40625 53.074219 48.414062 51.359375 C 48.417969 50.527344 48.421875 49.699219 48.421875 48.867188 C 48.421875 48.144531 48.425781 47.417969 48.429688 46.691406 C 48.429688 46.3125 48.433594 45.929688 48.433594 45.546875 C 48.429688 42.992188 48.816406 40.691406 49.621094 38.273438 C 49.75 37.878906 49.875 37.484375 50.003906 37.089844 C 50.027344 37.011719 50.050781 36.933594 50.074219 36.855469 C 50.539062 35.382812 50.863281 33.871094 50.894531 32.320312 C 50.894531 32.230469 50.898438 32.136719 50.898438 32.042969 C 50.917969 31.1875 50.929688 30.332031 50.9375 29.476562 C 50.941406 28.902344 50.949219 28.332031 50.964844 27.761719 C 51.027344 25.140625 51.050781 22.921875 49.738281 20.574219 C 49.507812 20.164062 49.300781 19.742188 49.09375 19.320312 C 48.664062 18.464844 48.195312 17.609375 47.578125 16.875 C 47.539062 16.875 47.5 16.875 47.460938 16.875 Z M 25.898438 17.929688 C 25.742188 18.546875 25.589844 19.167969 25.429688 19.804688 C 25.375 20.015625 25.320312 20.226562 25.265625 20.445312 C 25.140625 20.945312 25.019531 21.449219 24.898438 21.953125 C 24.847656 22.167969 24.792969 22.382812 24.738281 22.597656 C 24.65625 22.914062 24.582031 23.226562 24.507812 23.542969 C 24.46875 23.6875 24.46875 23.6875 24.429688 23.832031 C 24.371094 24.113281 24.335938 24.324219 24.375 24.609375 C 24.601562 24.945312 24.878906 25.179688 25.195312 25.429688 C 25.339844 25.554688 25.484375 25.683594 25.628906 25.8125 C 25.746094 25.910156 25.746094 25.910156 25.863281 26.015625 C 26.128906 26.246094 26.382812 26.484375 26.640625 26.726562 C 28.128906 28.167969 28.128906 28.167969 30.050781 28.703125 C 31.523438 28.484375 32.5 27.445312 33.523438 26.457031 C 34.65625 25.363281 34.65625 25.363281 35.28125 24.96875 C 35.394531 24.847656 35.394531 24.847656 35.507812 24.726562 C 35.457031 23.941406 35.269531 23.179688 35.097656 22.414062 C 35.070312 22.300781 35.046875 22.1875 35.019531 22.070312 C 34.925781 21.648438 34.832031 21.222656 34.738281 20.800781 C 34.527344 19.851562 34.316406 18.90625 34.101562 17.929688 C 31.394531 17.929688 28.6875 17.929688 25.898438 17.929688 Z M 6.488281 25.210938 C 4.683594 27.128906 3.960938 30.050781 3.957031 32.621094 C 3.960938 32.84375 3.972656 33.0625 3.984375 33.28125 C 4.023438 33.28125 4.0625 33.28125 4.101562 33.28125 C 4.113281 33.195312 4.128906 33.109375 4.140625 33.019531 C 4.355469 31.695312 4.355469 31.695312 4.921875 31.203125 C 5.902344 30.589844 7.015625 30.871094 8.203125 30.820312 C 8.203125 28.578125 8.203125 26.335938 8.203125 24.023438 C 7.671875 24.023438 6.871094 24.855469 6.488281 25.210938 Z M 51.679688 24.023438 C 51.679688 26.265625 51.679688 28.507812 51.679688 30.820312 C 52.609375 30.859375 53.535156 30.898438 54.492188 30.9375 C 55.285156 31.335938 55.285156 31.335938 55.464844 31.742188 C 55.503906 31.820312 55.539062 31.898438 55.574219 31.976562 C 56.582031 34.792969 55.304688 38.34375 54.554688 41.082031 C 54.527344 41.171875 54.503906 41.265625 54.476562 41.363281 C 54.429688 41.535156 54.382812 41.710938 54.332031 41.882812 C 53.949219 43.304688 53.875 44.683594 53.882812 46.148438 C 53.882812 46.347656 53.882812 46.542969 53.882812 46.742188 C 53.886719 47.257812 53.886719 47.773438 53.890625 48.289062 C 53.890625 48.816406 53.894531 49.34375 53.894531 49.871094 C 53.898438 50.902344 53.902344 51.9375 53.90625 52.96875 C 56.4375 49.675781 56.15625 44.132812 56.148438 40.1875 C 56.148438 40.003906 56.148438 40.003906 56.148438 39.8125 C 56.523438 31.957031 56.523438 31.957031 53.289062 25.144531 C 52.796875 24.679688 52.328125 24.238281 51.679688 24.023438 Z M 24.257812 25.195312 C 24.066406 26.046875 23.871094 26.898438 23.671875 27.773438 C 23.847656 27.917969 24.023438 28.058594 24.207031 28.207031 C 24.984375 28.839844 25.738281 29.5 26.496094 30.15625 C 28.1875 31.675781 28.1875 31.675781 30 33.046875 C 30.167969 32.902344 30.332031 32.761719 30.5 32.617188 C 30.648438 32.492188 30.792969 32.367188 30.941406 32.238281 C 31.316406 31.917969 31.695312 31.59375 32.070312 31.269531 C 32.683594 30.742188 33.296875 30.21875 33.925781 29.707031 C 34.078125 29.582031 34.078125 29.582031 34.230469 29.453125 C 34.492188 29.242188 34.753906 29.046875 35.023438 28.851562 C 35.859375 28.277344 35.859375 28.277344 36.269531 27.40625 C 36.210938 27.039062 36.109375 26.71875 35.976562 26.367188 C 35.929688 26.164062 35.886719 25.957031 35.84375 25.753906 C 35.8125 25.605469 35.777344 25.460938 35.742188 25.3125 C 35.34375 25.378906 35.164062 25.5 34.890625 25.796875 C 34.535156 26.167969 34.167969 26.507812 33.777344 26.839844 C 33.585938 27.007812 33.402344 27.183594 33.21875 27.359375 C 32.316406 28.222656 31.308594 29.011719 30.007812 29.074219 C 29.589844 29.054688 29.222656 28.96875 28.828125 28.828125 C 28.757812 28.804688 28.683594 28.777344 28.609375 28.753906 C 27.832031 28.425781 27.257812 27.808594 26.660156 27.234375 C 26.21875 26.820312 25.765625 26.417969 25.3125 26.015625 C 25.222656 25.933594 25.128906 25.851562 25.035156 25.769531 C 24.949219 25.691406 24.867188 25.617188 24.777344 25.539062 C 24.703125 25.472656 24.628906 25.40625 24.550781 25.335938 C 24.398438 25.183594 24.398438 25.183594 24.257812 25.195312 Z M 37.851562 27.1875 C 37.777344 27.277344 37.777344 27.277344 37.699219 27.371094 C 37.222656 27.953125 36.695312 28.414062 36.109375 28.882812 C 35.691406 29.214844 35.289062 29.566406 34.886719 29.917969 C 34.734375 30.050781 34.585938 30.179688 34.433594 30.3125 C 34.359375 30.378906 34.285156 30.441406 34.207031 30.507812 C 33.855469 30.816406 33.503906 31.117188 33.148438 31.421875 C 33.082031 31.476562 33.015625 31.535156 32.949219 31.59375 C 32.605469 31.886719 32.261719 32.179688 31.917969 32.46875 C 31.851562 32.523438 31.78125 32.582031 31.710938 32.644531 C 31.582031 32.753906 31.449219 32.863281 31.320312 32.96875 C 30.980469 33.253906 30.664062 33.550781 30.351562 33.867188 C 35.804688 33.933594 41.308594 32.839844 46.171875 30.351562 C 45.851562 30.136719 45.585938 30.015625 45.226562 29.882812 C 45.042969 29.816406 45.042969 29.816406 44.859375 29.75 C 44.726562 29.699219 44.59375 29.652344 44.460938 29.601562 C 44.324219 29.550781 44.1875 29.5 44.046875 29.449219 C 43.683594 29.316406 43.320312 29.183594 42.957031 29.046875 C 42.59375 28.914062 42.230469 28.78125 41.867188 28.648438 C 40.53125 28.152344 39.195312 27.660156 37.851562 27.1875 Z M 21.171875 27.472656 C 21.070312 27.507812 20.972656 27.546875 20.867188 27.585938 C 20.761719 27.625 20.652344 27.664062 20.542969 27.707031 C 20.429688 27.75 20.316406 27.792969 20.199219 27.835938 C 19.835938 27.96875 19.472656 28.105469 19.109375 28.242188 C 18.871094 28.332031 18.636719 28.417969 18.398438 28.507812 C 16.871094 29.074219 15.347656 29.652344 13.828125 30.234375 C 16.796875 33.300781 24.179688 33.769531 28.242188 33.867188 C 28.671875 33.875 29.101562 33.875 29.53125 33.867188 C 29.21875 33.453125 28.902344 33.132812 28.5 32.8125 C 27.953125 32.375 27.421875 31.925781 26.894531 31.464844 C 26.382812 31.015625 25.863281 30.574219 25.335938 30.148438 C 24.816406 29.726562 24.320312 29.292969 23.832031 28.84375 C 23.496094 28.539062 23.15625 28.246094 22.8125 27.949219 C 22.617188 27.773438 22.617188 27.773438 22.355469 27.488281 C 21.980469 27.152344 21.59375 27.316406 21.171875 27.472656 Z M 12.539062 30.703125 C 12.132812 31.347656 12.136719 31.898438 12.144531 32.632812 C 12.144531 32.75 12.144531 32.867188 12.144531 32.988281 C 12.144531 33.234375 12.144531 33.484375 12.148438 33.730469 C 12.152344 34.109375 12.152344 34.484375 12.148438 34.863281 C 12.148438 35.105469 12.152344 35.34375 12.152344 35.585938 C 12.152344 35.699219 12.152344 35.808594 12.152344 35.925781 C 12.152344 36.03125 12.152344 36.136719 12.15625 36.246094 C 12.15625 36.339844 12.15625 36.429688 12.15625 36.527344 C 12.183594 36.859375 12.183594 36.859375 12.421875 37.382812 C 13.699219 37.382812 14.972656 37.382812 16.289062 37.382812 C 16.289062 35.71875 16.289062 34.058594 16.289062 32.34375 C 15.246094 31.878906 15.246094 31.878906 14.179688 31.40625 C 13.425781 30.996094 13.425781 30.996094 13.132812 30.824219 C 12.882812 30.675781 12.882812 30.675781 12.539062 30.703125 Z M 46.109375 31.246094 C 45.324219 31.675781 44.550781 31.984375 43.710938 32.34375 C 43.671875 34.007812 43.632812 35.667969 43.59375 37.382812 C 44.910156 37.382812 46.222656 37.382812 47.578125 37.382812 C 47.691406 37.039062 47.710938 36.816406 47.714844 36.460938 C 47.714844 36.34375 47.714844 36.230469 47.71875 36.109375 C 47.71875 35.984375 47.71875 35.859375 47.71875 35.730469 C 47.71875 35.539062 47.71875 35.539062 47.722656 35.34375 C 47.722656 35.070312 47.722656 34.800781 47.722656 34.527344 C 47.722656 34.109375 47.726562 33.695312 47.730469 33.277344 C 47.734375 33.015625 47.734375 32.75 47.734375 32.488281 C 47.734375 32.363281 47.738281 32.238281 47.738281 32.109375 C 47.738281 31.992188 47.738281 31.878906 47.738281 31.757812 C 47.738281 31.65625 47.738281 31.554688 47.738281 31.449219 C 47.6875 31.113281 47.578125 30.949219 47.34375 30.703125 C 46.902344 30.703125 46.488281 31.03125 46.109375 31.246094 Z M 5.257812 31.902344 C 4.328125 33.273438 4.820312 35.417969 5.09375 36.949219 C 5.285156 37.925781 5.550781 38.890625 5.808594 39.851562 C 5.894531 40.183594 5.984375 40.515625 6.070312 40.847656 C 6.125 41.050781 6.175781 41.257812 6.230469 41.460938 C 6.699219 43.242188 6.8125 44.949219 6.800781 46.78125 C 6.800781 47.3125 6.800781 47.84375 6.804688 48.375 C 6.804688 49.046875 6.804688 49.722656 6.800781 50.394531 C 6.796875 50.941406 6.796875 51.488281 6.800781 52.035156 C 6.800781 52.242188 6.800781 52.449219 6.796875 52.65625 C 6.753906 53.785156 6.753906 53.785156 7.117188 54.820312 C 7.347656 55.0625 7.574219 55.246094 7.851562 55.429688 C 7.925781 55.484375 8 55.542969 8.078125 55.597656 C 8.269531 55.742188 8.46875 55.867188 8.671875 55.992188 C 8.777344 56.058594 8.777344 56.058594 8.886719 56.128906 C 9.484375 56.496094 10.0625 56.835938 10.78125 56.835938 C 10.78125 56.292969 10.78125 55.753906 10.78125 55.195312 C 10.5625 55.101562 10.5625 55.101562 10.34375 55.003906 C 9.757812 54.746094 9.191406 54.460938 8.625 54.171875 C 8.320312 54.015625 8.320312 54.015625 7.96875 53.90625 C 7.96875 52.863281 7.96875 51.816406 7.96875 50.742188 C 8.898438 50.703125 9.824219 50.664062 10.78125 50.625 C 10.78125 50.316406 10.78125 50.007812 10.78125 49.6875 C 9.816406 49.6875 8.847656 49.6875 7.851562 49.6875 C 7.851562 48.488281 7.851562 47.289062 7.851562 46.054688 C 8.820312 46.054688 9.785156 46.054688 10.78125 46.054688 C 10.78125 45.746094 10.78125 45.4375 10.78125 45.117188 C 9.816406 45.117188 8.847656 45.117188 7.851562 45.117188 C 7.832031 44.710938 7.832031 44.710938 7.816406 44.296875 C 7.761719 43.296875 7.585938 42.347656 7.382812 41.367188 C 8.386719 41.367188 9.394531 41.367188 10.429688 41.367188 C 10.351562 41.097656 10.273438 40.824219 10.195312 40.546875 C 8.6875 40.488281 8.6875 40.488281 7.148438 40.429688 C 6.976562 39.996094 6.804688 39.558594 6.628906 39.113281 C 6.574219 38.976562 6.519531 38.839844 6.464844 38.699219 C 6.421875 38.589844 6.378906 38.480469 6.335938 38.371094 C 6.292969 38.257812 6.25 38.148438 6.203125 38.035156 C 6.09375 37.734375 6.09375 37.734375 5.976562 37.265625 C 7.019531 37.265625 8.066406 37.265625 9.140625 37.265625 C 9.0625 36.957031 8.984375 36.648438 8.90625 36.328125 C 7.863281 36.289062 6.816406 36.25 5.742188 36.210938 C 5.542969 35.007812 5.488281 33.910156 5.507812 32.695312 C 6.4375 32.695312 7.363281 32.695312 8.320312 32.695312 C 8.28125 32.347656 8.242188 32 8.203125 31.640625 C 7.785156 31.625 7.367188 31.613281 6.949219 31.605469 C 6.832031 31.597656 6.714844 31.59375 6.59375 31.589844 C 5.878906 31.574219 5.878906 31.574219 5.257812 31.902344 Z M 51.679688 31.640625 C 51.679688 31.988281 51.679688 32.335938 51.679688 32.695312 C 52.609375 32.695312 53.535156 32.695312 54.492188 32.695312 C 54.476562 33.054688 54.457031 33.414062 54.441406 33.785156 C 54.4375 33.898438 54.429688 34.007812 54.425781 34.121094 C 54.390625 34.863281 54.324219 35.589844 54.257812 36.328125 C 53.214844 36.328125 52.167969 36.328125 51.09375 36.328125 C 50.976562 36.636719 50.863281 36.945312 50.742188 37.265625 C 51.785156 37.265625 52.832031 37.265625 53.90625 37.265625 C 53.066406 40.097656 53.066406 40.097656 52.734375 40.429688 C 52.507812 40.449219 52.28125 40.460938 52.054688 40.464844 C 51.917969 40.472656 51.78125 40.476562 51.640625 40.480469 C 51.496094 40.484375 51.351562 40.492188 51.203125 40.496094 C 50.988281 40.503906 50.988281 40.503906 50.765625 40.511719 C 50.40625 40.523438 50.046875 40.535156 49.6875 40.546875 C 49.648438 40.816406 49.609375 41.089844 49.570312 41.367188 C 50.535156 41.40625 51.503906 41.445312 52.5 41.484375 C 52.332031 42.515625 52.332031 42.515625 52.277344 42.832031 C 52.164062 43.558594 52.097656 44.265625 52.03125 45 C 51.101562 45.039062 50.175781 45.078125 49.21875 45.117188 C 49.21875 45.425781 49.21875 45.734375 49.21875 46.054688 C 50.183594 46.054688 51.152344 46.054688 52.148438 46.054688 C 52.148438 47.253906 52.148438 48.453125 52.148438 49.6875 C 51.179688 49.6875 50.214844 49.6875 49.21875 49.6875 C 49.21875 49.996094 49.21875 50.304688 49.21875 50.625 C 50.148438 50.625 51.074219 50.625 52.03125 50.625 C 52.046875 51.101562 52.058594 51.578125 52.066406 52.054688 C 52.074219 52.1875 52.078125 52.324219 52.082031 52.460938 C 52.097656 53.453125 52.097656 53.453125 51.796875 53.914062 C 51.375 54.1875 50.957031 54.390625 50.492188 54.578125 C 50.410156 54.617188 50.324219 54.652344 50.238281 54.6875 C 49.902344 54.828125 49.566406 54.960938 49.21875 55.078125 C 49.21875 55.660156 49.21875 56.238281 49.21875 56.835938 C 50.589844 56.5625 51.648438 55.824219 52.617188 54.84375 C 52.699219 54.78125 52.78125 54.71875 52.863281 54.652344 C 53.179688 54.257812 53.148438 53.894531 53.140625 53.410156 C 53.140625 53.3125 53.140625 53.214844 53.140625 53.117188 C 53.140625 52.90625 53.140625 52.695312 53.140625 52.484375 C 53.136719 52.144531 53.136719 51.808594 53.136719 51.472656 C 53.140625 50.632812 53.140625 49.792969 53.136719 48.953125 C 53.117188 43.449219 53.117188 43.449219 53.789062 41.015625 C 53.832031 40.84375 53.875 40.671875 53.917969 40.496094 C 54.03125 40.0625 54.148438 39.632812 54.273438 39.199219 C 54.734375 37.5 55.101562 35.925781 55.121094 34.160156 C 55.125 34.054688 55.125 33.945312 55.128906 33.835938 C 55.121094 33.160156 55.070312 32.472656 54.726562 31.875 C 54.371094 31.628906 54.074219 31.613281 53.648438 31.617188 C 53.535156 31.617188 53.417969 31.621094 53.300781 31.621094 C 53.179688 31.621094 53.0625 31.625 52.9375 31.625 C 52.820312 31.628906 52.699219 31.628906 52.574219 31.628906 C 52.273438 31.632812 51.976562 31.636719 51.679688 31.640625 Z M 5.859375 33.164062 C 5.835938 34.097656 5.921875 34.941406 6.09375 35.859375 C 6.984375 35.859375 7.871094 35.859375 8.789062 35.859375 C 8.632812 34.96875 8.480469 34.082031 8.320312 33.164062 C 7.507812 33.164062 6.695312 33.164062 5.859375 33.164062 Z M 51.679688 33.164062 C 51.535156 33.820312 51.402344 34.441406 51.3125 35.105469 C 51.28125 35.355469 51.246094 35.601562 51.210938 35.859375 C 52.101562 35.859375 52.988281 35.859375 53.90625 35.859375 C 54.003906 35.148438 54.003906 35.148438 54.035156 34.445312 C 54.027344 33.804688 54.027344 33.804688 54.023438 33.164062 C 53.25 33.164062 52.476562 33.164062 51.679688 33.164062 Z M 18.984375 33.28125 C 18.71875 33.683594 18.710938 33.855469 18.707031 34.328125 C 18.703125 34.449219 18.699219 34.574219 18.695312 34.699219 C 18.765625 35.132812 18.890625 35.222656 19.21875 35.507812 C 21.230469 36.828125 21.230469 36.828125 23.484375 37.246094 C 23.90625 37.121094 24.273438 36.921875 24.640625 36.6875 C 24.960938 36.492188 25.3125 36.375 25.664062 36.246094 C 25.992188 36.125 25.992188 36.125 26.25 35.976562 C 26.410156 35.613281 26.410156 35.613281 26.21875 35.214844 C 26.007812 34.769531 26.007812 34.769531 25.664062 34.453125 C 25.300781 34.359375 25.300781 34.359375 24.875 34.3125 C 24.757812 34.292969 24.757812 34.292969 24.636719 34.277344 C 24.46875 34.253906 24.300781 34.230469 24.132812 34.210938 C 23.691406 34.152344 23.253906 34.089844 22.816406 34.023438 C 22.730469 34.011719 22.640625 34 22.550781 33.984375 C 21.578125 33.839844 20.625 33.621094 19.667969 33.390625 C 19.257812 33.273438 19.257812 33.273438 18.984375 33.28125 Z M 40.203125 33.390625 C 39.164062 33.644531 38.136719 33.871094 37.074219 34.007812 C 36.988281 34.019531 36.902344 34.03125 36.8125 34.042969 C 36.382812 34.101562 35.949219 34.15625 35.515625 34.203125 C 34.554688 34.289062 34.554688 34.289062 33.8125 34.839844 C 33.597656 35.210938 33.617188 35.554688 33.632812 35.976562 C 35.484375 37.066406 35.484375 37.066406 37.554688 37.160156 C 38.695312 36.785156 40.359375 36.105469 41.132812 35.15625 C 41.355469 34.488281 41.265625 33.925781 41.015625 33.28125 C 40.707031 33.28125 40.496094 33.3125 40.203125 33.390625 Z M 3.867188 33.632812 C 3.859375 34.964844 3.851562 36.300781 3.847656 37.632812 C 3.847656 38.253906 3.84375 38.875 3.839844 39.492188 C 3.742188 46.515625 3.742188 46.515625 5.976562 53.085938 C 6.015625 53.085938 6.054688 53.085938 6.09375 53.085938 C 6.101562 52.058594 6.109375 51.03125 6.113281 50.003906 C 6.113281 49.527344 6.117188 49.050781 6.121094 48.574219 C 6.144531 45.648438 5.949219 42.984375 5.15625 40.160156 C 4.660156 38.367188 4.230469 36.605469 4.078125 34.746094 C 4.070312 34.636719 4.058594 34.527344 4.050781 34.417969 C 4.027344 34.15625 4.003906 33.894531 3.984375 33.632812 C 3.945312 33.632812 3.90625 33.632812 3.867188 33.632812 Z M 16.992188 32.695312 C 16.992188 33.507812 16.992188 34.320312 16.992188 35.15625 C 17.507812 35.414062 17.507812 35.414062 18.019531 35.671875 C 18.542969 35.929688 19.0625 36.191406 19.582031 36.453125 C 19.703125 36.515625 19.828125 36.574219 19.953125 36.640625 C 20.195312 36.761719 20.4375 36.882812 20.683594 37.007812 C 21.011719 37.171875 21.347656 37.335938 21.679688 37.5 C 21.777344 37.550781 21.875 37.597656 21.976562 37.648438 C 22.070312 37.695312 22.160156 37.738281 22.253906 37.785156 C 22.332031 37.824219 22.414062 37.863281 22.492188 37.902344 C 23.085938 38.066406 23.679688 37.726562 24.226562 37.511719 C 24.3125 37.476562 24.402344 37.441406 24.492188 37.40625 C 24.773438 37.296875 25.054688 37.1875 25.335938 37.074219 C 25.515625 37.003906 25.699219 36.933594 25.882812 36.859375 C 25.972656 36.824219 26.0625 36.789062 26.15625 36.753906 C 26.339844 36.679688 26.523438 36.609375 26.707031 36.539062 C 27.179688 36.355469 27.648438 36.167969 28.113281 35.96875 C 28.253906 35.910156 28.253906 35.910156 28.398438 35.851562 C 28.574219 35.78125 28.753906 35.703125 28.929688 35.628906 C 29.980469 35.199219 30.820312 35.5625 31.824219 35.96875 C 31.941406 36.015625 32.054688 36.058594 32.175781 36.105469 C 32.542969 36.253906 32.914062 36.402344 33.28125 36.546875 C 33.527344 36.644531 33.777344 36.746094 34.023438 36.84375 C 34.375 36.980469 34.722656 37.121094 35.074219 37.257812 C 35.277344 37.339844 35.484375 37.421875 35.691406 37.503906 C 35.875 37.578125 36.058594 37.652344 36.242188 37.730469 C 36.835938 37.976562 37.167969 37.988281 37.757812 37.746094 C 37.847656 37.703125 37.933594 37.660156 38.023438 37.613281 C 38.125 37.566406 38.222656 37.515625 38.324219 37.464844 C 38.433594 37.414062 38.539062 37.359375 38.648438 37.304688 C 38.757812 37.25 38.867188 37.199219 38.980469 37.140625 C 39.332031 36.96875 39.683594 36.796875 40.035156 36.621094 C 40.386719 36.449219 40.738281 36.273438 41.089844 36.101562 C 41.308594 35.992188 41.527344 35.882812 41.746094 35.777344 C 41.84375 35.726562 41.945312 35.679688 42.046875 35.628906 C 42.132812 35.585938 42.21875 35.542969 42.308594 35.496094 C 42.539062 35.390625 42.539062 35.390625 42.890625 35.273438 C 42.890625 34.421875 42.890625 33.570312 42.890625 32.695312 C 42.679688 32.746094 42.46875 32.796875 42.253906 32.847656 C 42.136719 32.878906 42.015625 32.90625 41.894531 32.9375 C 41.796875 32.972656 41.703125 33.007812 41.601562 33.046875 C 41.472656 33.429688 41.5 33.5 41.601562 33.867188 C 41.652344 34.515625 41.636719 35.140625 41.367188 35.742188 C 41.136719 35.828125 40.902344 35.90625 40.664062 35.976562 C 40.402344 36.101562 40.140625 36.230469 39.878906 36.363281 C 39.730469 36.4375 39.582031 36.511719 39.433594 36.585938 C 39.203125 36.703125 38.972656 36.820312 38.742188 36.9375 C 38.515625 37.054688 38.289062 37.164062 38.0625 37.277344 C 37.929688 37.347656 37.796875 37.414062 37.660156 37.484375 C 36.960938 37.722656 36.390625 37.503906 35.734375 37.230469 C 35.605469 37.179688 35.476562 37.128906 35.34375 37.074219 C 35.210938 37.019531 35.078125 36.964844 34.945312 36.90625 C 34.679688 36.796875 34.414062 36.6875 34.152344 36.582031 C 34.035156 36.53125 33.917969 36.484375 33.796875 36.433594 C 33.53125 36.3125 33.53125 36.3125 33.28125 36.328125 C 33.273438 36.144531 33.269531 35.960938 33.265625 35.777344 C 33.265625 35.675781 33.261719 35.574219 33.257812 35.46875 C 33.28125 35.15625 33.28125 35.15625 33.515625 34.570312 C 31.195312 34.570312 28.875 34.570312 26.484375 34.570312 C 26.601562 35.152344 26.601562 35.152344 26.71875 35.742188 C 26.664062 36.085938 26.664062 36.085938 26.484375 36.328125 C 26.15625 36.515625 26.15625 36.515625 25.738281 36.671875 C 25.664062 36.699219 25.589844 36.726562 25.515625 36.757812 C 25.359375 36.816406 25.203125 36.871094 25.046875 36.929688 C 24.808594 37.015625 24.570312 37.105469 24.335938 37.199219 C 23.335938 37.570312 22.859375 37.679688 21.871094 37.230469 C 21.792969 37.195312 21.714844 37.15625 21.636719 37.121094 C 21.554688 37.082031 21.472656 37.046875 21.386719 37.007812 C 21.214844 36.925781 21.042969 36.847656 20.871094 36.765625 C 20.609375 36.644531 20.347656 36.523438 20.085938 36.402344 C 19.917969 36.324219 19.75 36.246094 19.585938 36.167969 C 19.503906 36.132812 19.425781 36.097656 19.347656 36.058594 C 18.925781 35.859375 18.617188 35.695312 18.398438 35.273438 C 18.359375 35.015625 18.359375 35.015625 18.363281 34.742188 C 18.367188 34.640625 18.367188 34.542969 18.367188 34.441406 C 18.371094 34.339844 18.375 34.234375 18.375 34.132812 C 18.378906 34.027344 18.378906 33.921875 18.382812 33.816406 C 18.386719 33.558594 18.390625 33.304688 18.398438 33.046875 C 17.703125 32.871094 17.703125 32.871094 16.992188 32.695312 Z M 16.992188 35.742188 C 17.023438 36.816406 17.097656 37.441406 17.835938 38.253906 C 18.191406 38.582031 18.554688 38.785156 18.988281 38.988281 C 19.066406 39.027344 19.144531 39.0625 19.222656 39.101562 C 19.386719 39.179688 19.550781 39.257812 19.714844 39.335938 C 19.964844 39.457031 20.214844 39.574219 20.460938 39.695312 C 20.621094 39.773438 20.78125 39.847656 20.941406 39.925781 C 21.054688 39.980469 21.054688 39.980469 21.164062 40.03125 C 21.652344 40.261719 22.089844 40.394531 22.617188 40.546875 C 22.617188 39.851562 22.617188 39.15625 22.617188 38.4375 C 21.40625 37.785156 20.1875 37.15625 18.949219 36.5625 C 18.832031 36.507812 18.71875 36.453125 18.601562 36.394531 C 18.074219 36.144531 17.554688 35.910156 16.992188 35.742188 Z M 30.117188 35.859375 C 30.117188 36.402344 30.117188 36.941406 30.117188 37.5 C 30.753906 37.800781 31.386719 38.105469 32.023438 38.40625 C 32.238281 38.507812 32.453125 38.609375 32.667969 38.714844 C 33.285156 39.007812 33.902344 39.296875 34.519531 39.589844 C 34.707031 39.679688 34.890625 39.769531 35.078125 39.859375 C 35.328125 39.976562 35.574219 40.09375 35.824219 40.210938 C 35.960938 40.273438 36.097656 40.339844 36.242188 40.410156 C 36.539062 40.5625 36.539062 40.5625 36.796875 40.546875 C 36.796875 39.851562 36.796875 39.15625 36.796875 38.4375 C 36.078125 38.070312 36.078125 38.070312 35.347656 37.757812 C 35.214844 37.707031 35.214844 37.707031 35.078125 37.65625 C 34.9375 37.605469 34.9375 37.605469 34.796875 37.550781 C 34.699219 37.511719 34.601562 37.476562 34.5 37.4375 C 34.1875 37.320312 33.878906 37.199219 33.566406 37.082031 C 33.253906 36.964844 32.945312 36.84375 32.632812 36.726562 C 32.441406 36.652344 32.246094 36.578125 32.054688 36.507812 C 31.644531 36.351562 31.238281 36.191406 30.835938 36.011719 C 30.480469 35.835938 30.480469 35.835938 30.117188 35.859375 Z M 41.855469 36.183594 C 41.761719 36.226562 41.667969 36.273438 41.570312 36.320312 C 41.375 36.417969 41.175781 36.515625 40.976562 36.609375 C 40.675781 36.757812 40.375 36.902344 40.074219 37.050781 C 39.136719 37.507812 38.199219 37.96875 37.265625 38.4375 C 37.265625 39.171875 37.265625 39.90625 37.265625 40.664062 C 38.480469 40.128906 39.6875 39.585938 40.882812 39.007812 C 41.027344 38.941406 41.027344 38.941406 41.175781 38.871094 C 41.929688 38.503906 42.421875 38.058594 42.816406 37.316406 C 42.902344 36.984375 42.914062 36.691406 42.90625 36.351562 C 42.902344 36.234375 42.902344 36.121094 42.898438 36.003906 C 42.894531 35.917969 42.894531 35.832031 42.890625 35.742188 C 42.5625 35.742188 42.15625 36.035156 41.855469 36.183594 Z M 28.582031 36.21875 C 28.484375 36.257812 28.386719 36.292969 28.289062 36.332031 C 28.082031 36.410156 27.875 36.492188 27.667969 36.570312 C 27.355469 36.691406 27.046875 36.8125 26.734375 36.929688 C 25.800781 37.289062 24.871094 37.652344 23.941406 38.019531 C 23.800781 38.074219 23.660156 38.128906 23.515625 38.1875 C 23.21875 38.292969 23.21875 38.292969 23.085938 38.4375 C 23.074219 38.59375 23.074219 38.753906 23.074219 38.910156 C 23.074219 39.003906 23.074219 39.101562 23.074219 39.199219 C 23.078125 39.296875 23.078125 39.398438 23.078125 39.5 C 23.078125 39.597656 23.078125 39.699219 23.082031 39.804688 C 23.082031 40.050781 23.082031 40.300781 23.085938 40.546875 C 23.488281 40.480469 23.820312 40.378906 24.1875 40.199219 C 24.285156 40.148438 24.382812 40.101562 24.484375 40.054688 C 24.585938 40 24.691406 39.949219 24.796875 39.894531 C 24.90625 39.84375 25.015625 39.789062 25.128906 39.734375 C 25.476562 39.5625 25.824219 39.394531 26.167969 39.222656 C 26.402344 39.105469 26.632812 38.992188 26.867188 38.878906 C 27.796875 38.421875 28.722656 37.964844 29.648438 37.5 C 29.648438 36.957031 29.648438 36.417969 29.648438 35.859375 C 29.304688 35.859375 28.902344 36.09375 28.582031 36.21875 Z M 6.5625 37.734375 C 6.671875 38.054688 6.785156 38.378906 6.898438 38.707031 C 6.933594 38.808594 6.96875 38.910156 7.003906 39.015625 C 7.03125 39.09375 7.058594 39.175781 7.089844 39.257812 C 7.117188 39.339844 7.144531 39.417969 7.175781 39.503906 C 7.269531 39.757812 7.269531 39.757812 7.5 40.078125 C 7.773438 40.125 7.773438 40.125 8.085938 40.113281 C 8.203125 40.109375 8.316406 40.109375 8.4375 40.109375 C 8.558594 40.105469 8.679688 40.101562 8.804688 40.101562 C 8.925781 40.097656 9.046875 40.097656 9.171875 40.09375 C 9.476562 40.089844 9.777344 40.085938 10.078125 40.078125 C 9.847656 39.304688 9.613281 38.53125 9.375 37.734375 C 8.445312 37.734375 7.519531 37.734375 6.5625 37.734375 Z M 50.625 37.734375 C 50.507812 38.078125 50.394531 38.421875 50.273438 38.773438 C 50.21875 38.9375 50.21875 38.9375 50.164062 39.101562 C 50.132812 39.1875 50.105469 39.273438 50.074219 39.359375 C 50.03125 39.488281 50.03125 39.488281 49.988281 39.625 C 49.910156 39.84375 49.910156 39.84375 49.921875 40.078125 C 50.773438 40.078125 51.625 40.078125 52.5 40.078125 C 52.703125 39.5625 52.703125 39.5625 52.910156 39.039062 C 52.953125 38.929688 52.996094 38.820312 53.039062 38.710938 C 53.074219 38.625 53.105469 38.539062 53.140625 38.453125 C 53.175781 38.367188 53.210938 38.277344 53.246094 38.1875 C 53.332031 37.96875 53.332031 37.96875 53.320312 37.734375 C 52.429688 37.734375 51.542969 37.734375 50.625 37.734375 Z M 12.773438 37.851562 C 13.046875 38.269531 13.289062 38.632812 13.675781 38.949219 C 13.753906 39.019531 13.835938 39.089844 13.921875 39.160156 C 14.097656 39.304688 14.273438 39.453125 14.449219 39.597656 C 14.585938 39.710938 14.585938 39.710938 14.722656 39.828125 C 14.804688 39.894531 14.882812 39.964844 14.96875 40.035156 C 15.234375 40.3125 15.234375 40.3125 15.351562 40.574219 C 15.515625 40.914062 15.648438 41.121094 15.9375 41.367188 C 16.601562 41.503906 17.242188 41.464844 17.914062 41.433594 C 18.097656 41.429688 18.28125 41.421875 18.464844 41.417969 C 18.910156 41.40625 19.359375 41.390625 19.804688 41.367188 C 19.085938 40.515625 18.335938 39.726562 17.46875 39.027344 C 17.226562 38.789062 17.226562 38.789062 17.109375 38.558594 C 16.941406 38.25 16.804688 38.066406 16.523438 37.851562 C 15.878906 37.730469 15.253906 37.761719 14.605469 37.792969 C 14.425781 37.796875 14.25 37.800781 14.070312 37.804688 C 13.640625 37.816406 13.207031 37.832031 12.773438 37.851562 Z M 42.917969 38.285156 C 42.828125 38.453125 42.742188 38.621094 42.65625 38.789062 C 42.472656 38.992188 42.28125 39.191406 42.085938 39.382812 C 41.984375 39.480469 41.882812 39.578125 41.78125 39.679688 C 41.445312 39.996094 41.101562 40.296875 40.746094 40.585938 C 40.507812 40.820312 40.363281 41.078125 40.195312 41.367188 C 40.714844 41.394531 41.234375 41.414062 41.753906 41.425781 C 41.929688 41.429688 42.105469 41.4375 42.28125 41.445312 C 43.3125 41.527344 43.3125 41.527344 44.226562 41.148438 C 44.433594 40.878906 44.601562 40.609375 44.765625 40.3125 C 44.953125 40.109375 45.144531 39.90625 45.34375 39.710938 C 45.441406 39.613281 45.542969 39.515625 45.644531 39.417969 C 45.980469 39.101562 46.324219 38.796875 46.675781 38.503906 C 46.890625 38.304688 47.054688 38.089844 47.226562 37.851562 C 46.6875 37.828125 46.152344 37.8125 45.613281 37.800781 C 45.429688 37.796875 45.246094 37.789062 45.066406 37.78125 C 43.859375 37.671875 43.859375 37.671875 42.917969 38.285156 Z M 29.433594 38.039062 C 29.34375 38.082031 29.253906 38.125 29.160156 38.171875 C 29.015625 38.246094 29.015625 38.246094 28.867188 38.320312 C 28.765625 38.371094 28.664062 38.417969 28.558594 38.472656 C 28.234375 38.632812 27.910156 38.792969 27.582031 38.957031 C 27.261719 39.117188 26.945312 39.273438 26.625 39.433594 C 26.425781 39.53125 26.226562 39.628906 26.027344 39.730469 C 25.054688 40.210938 24.070312 40.671875 23.085938 41.132812 C 23.074219 42.730469 23.0625 44.324219 23.054688 45.921875 C 23.050781 46.664062 23.046875 47.402344 23.042969 48.144531 C 23.035156 48.859375 23.03125 49.574219 23.03125 50.289062 C 23.027344 50.5625 23.027344 50.835938 23.023438 51.109375 C 23.019531 51.492188 23.019531 51.871094 23.019531 52.253906 C 23.015625 52.367188 23.015625 52.480469 23.011719 52.597656 C 23.011719 53.230469 23.011719 53.230469 23.363281 53.738281 C 23.9375 54.050781 24.417969 54.1875 25.078125 54.140625 C 25.261719 53.957031 25.234375 53.761719 25.261719 53.507812 C 25.585938 50.6875 26.003906 47.109375 28.34375 45.183594 C 29.023438 44.6875 29.769531 44.691406 30.585938 44.765625 C 31.523438 44.972656 32.109375 45.496094 32.636719 46.273438 C 34.070312 48.648438 34.429688 51.441406 34.804688 54.140625 C 34.984375 54.132812 35.160156 54.121094 35.339844 54.109375 C 35.4375 54.105469 35.539062 54.101562 35.640625 54.09375 C 36.082031 54.019531 36.082031 54.019531 36.796875 53.554688 C 36.796875 49.457031 36.796875 45.355469 36.796875 41.132812 C 35.265625 40.367188 35.265625 40.367188 33.726562 39.621094 C 33.574219 39.550781 33.574219 39.550781 33.421875 39.476562 C 33.214844 39.378906 33.003906 39.277344 32.796875 39.179688 C 32.476562 39.027344 32.160156 38.875 31.839844 38.726562 C 31.636719 38.628906 31.433594 38.53125 31.226562 38.433594 C 31.132812 38.390625 31.039062 38.34375 30.941406 38.296875 C 30.808594 38.234375 30.808594 38.234375 30.675781 38.171875 C 30.558594 38.117188 30.558594 38.117188 30.441406 38.0625 C 30.011719 37.871094 29.847656 37.832031 29.433594 38.039062 Z M 37.265625 41.132812 C 37.265625 45.039062 37.265625 48.945312 37.265625 52.96875 C 38.269531 51.964844 38.878906 51 38.90625 49.566406 C 38.902344 49.3125 38.898438 49.058594 38.894531 48.804688 C 38.894531 48.621094 38.894531 48.441406 38.894531 48.257812 C 38.898438 47.785156 38.894531 47.3125 38.886719 46.839844 C 38.878906 46.082031 38.878906 45.324219 38.878906 44.566406 C 38.878906 44.304688 38.875 44.042969 38.871094 43.78125 C 38.863281 42.375 39.042969 41.394531 39.960938 40.3125 C 40.054688 40.195312 40.144531 40.082031 40.238281 39.960938 C 40.300781 39.882812 40.363281 39.804688 40.429688 39.726562 C 39.277344 39.726562 38.304688 40.632812 37.265625 41.132812 Z M 19.6875 39.84375 C 19.734375 39.902344 19.777344 39.957031 19.824219 40.015625 C 20.925781 41.433594 21.128906 42.695312 21.113281 44.472656 C 21.113281 44.734375 21.113281 44.996094 21.113281 45.257812 C 21.117188 46 21.117188 46.746094 21.113281 47.488281 C 21.109375 47.945312 21.109375 48.402344 21.113281 48.859375 C 21.113281 49.035156 21.113281 49.207031 21.109375 49.378906 C 21.09375 50.539062 21.261719 51.359375 22.03125 52.265625 C 22.226562 52.457031 22.417969 52.652344 22.617188 52.851562 C 22.617188 48.984375 22.617188 45.117188 22.617188 41.132812 C 21.203125 40.257812 21.203125 40.257812 19.6875 39.84375 Z M 7.96875 41.835938 C 7.996094 42.140625 8.023438 42.449219 8.050781 42.753906 C 8.074219 43 8.09375 43.242188 8.117188 43.488281 C 8.125 43.605469 8.132812 43.71875 8.144531 43.835938 C 8.152344 43.941406 8.160156 44.046875 8.171875 44.15625 C 8.1875 44.417969 8.1875 44.417969 8.320312 44.648438 C 9.132812 44.648438 9.945312 44.648438 10.78125 44.648438 C 10.808594 43.679688 10.710938 42.792969 10.546875 41.835938 C 9.695312 41.835938 8.84375 41.835938 7.96875 41.835938 Z M 16.171875 41.835938 C 16.191406 41.988281 16.210938 42.136719 16.230469 42.292969 C 16.292969 42.867188 16.308594 43.433594 16.3125 44.011719 C 16.3125 44.117188 16.316406 44.222656 16.316406 44.332031 C 16.320312 44.679688 16.324219 45.03125 16.324219 45.378906 C 16.328125 45.621094 16.332031 45.863281 16.332031 46.105469 C 16.339844 46.742188 16.347656 47.378906 16.351562 48.015625 C 16.355469 48.664062 16.363281 49.316406 16.371094 49.964844 C 16.382812 51.242188 16.394531 52.515625 16.40625 53.789062 C 16.953125 53.792969 17.503906 53.792969 18.050781 53.796875 C 18.238281 53.796875 18.425781 53.796875 18.613281 53.796875 C 18.878906 53.800781 19.148438 53.800781 19.417969 53.800781 C 19.5 53.800781 19.585938 53.800781 19.671875 53.800781 C 19.871094 53.800781 20.074219 53.796875 20.273438 53.789062 C 20.488281 53.574219 20.40625 53.277344 20.40625 52.992188 C 20.40625 52.894531 20.40625 52.796875 20.40625 52.695312 C 20.40625 52.59375 20.410156 52.492188 20.410156 52.386719 C 20.410156 52.046875 20.410156 51.707031 20.410156 51.363281 C 20.410156 51.128906 20.410156 50.890625 20.410156 50.65625 C 20.414062 50.160156 20.414062 49.660156 20.414062 49.164062 C 20.414062 48.53125 20.414062 47.894531 20.414062 47.257812 C 20.417969 46.769531 20.417969 46.28125 20.417969 45.792969 C 20.417969 45.558594 20.417969 45.324219 20.417969 45.089844 C 20.421875 44.761719 20.417969 44.433594 20.417969 44.105469 C 20.417969 44.007812 20.421875 43.914062 20.421875 43.816406 C 20.441406 42.753906 20.441406 42.753906 20.039062 41.835938 C 19.753906 41.824219 19.46875 41.824219 19.183594 41.824219 C 19.097656 41.824219 19.011719 41.824219 18.921875 41.824219 C 18.648438 41.824219 18.371094 41.828125 18.097656 41.828125 C 17.914062 41.828125 17.726562 41.828125 17.539062 41.832031 C 17.085938 41.832031 16.628906 41.832031 16.171875 41.835938 Z M 39.84375 41.835938 C 39.628906 42.453125 39.628906 42.453125 39.582031 43.050781 C 39.582031 43.144531 39.582031 43.242188 39.582031 43.339844 C 39.582031 43.441406 39.582031 43.546875 39.582031 43.652344 C 39.582031 43.761719 39.582031 43.871094 39.582031 43.984375 C 39.582031 44.347656 39.585938 44.707031 39.585938 45.070312 C 39.585938 45.320312 39.585938 45.570312 39.585938 45.824219 C 39.589844 46.480469 39.589844 47.140625 39.59375 47.800781 C 39.59375 48.476562 39.597656 49.148438 39.597656 49.824219 C 39.601562 51.144531 39.605469 52.46875 39.609375 53.789062 C 40.925781 53.789062 42.238281 53.789062 43.59375 53.789062 C 43.632812 49.84375 43.671875 45.898438 43.710938 41.835938 C 42.433594 41.835938 41.160156 41.835938 39.84375 41.835938 Z M 49.453125 41.835938 C 49.25 42.570312 49.25 42.570312 49.195312 43.273438 C 49.195312 43.347656 49.195312 43.421875 49.199219 43.5 C 49.199219 43.589844 49.203125 43.675781 49.203125 43.769531 C 49.207031 44.058594 49.214844 44.351562 49.21875 44.648438 C 50.03125 44.648438 50.84375 44.648438 51.679688 44.648438 C 51.796875 43.71875 51.910156 42.792969 52.03125 41.835938 C 51.179688 41.835938 50.328125 41.835938 49.453125 41.835938 Z M 27.539062 46.640625 C 26.578125 48.152344 26.179688 50.011719 25.855469 51.753906 C 25.824219 51.910156 25.824219 51.910156 25.796875 52.066406 C 25.671875 52.765625 25.640625 53.433594 25.664062 54.140625 C 25.855469 54.140625 26.050781 54.140625 26.25 54.140625 C 26.394531 53.519531 26.519531 52.902344 26.636719 52.277344 C 27.464844 47.847656 27.464844 47.847656 28.777344 46.714844 C 29.253906 46.394531 29.726562 46.320312 30.292969 46.347656 C 31.011719 46.492188 31.472656 47.003906 31.898438 47.570312 C 33.054688 49.46875 33.285156 51.988281 33.632812 54.140625 C 33.863281 54.140625 34.097656 54.140625 34.335938 54.140625 C 34.105469 51.417969 33.757812 47.671875 31.640625 45.703125 C 29.992188 44.613281 28.652344 45.109375 27.539062 46.640625 Z M 8.320312 46.40625 C 8.320312 47.335938 8.320312 48.261719 8.320312 49.21875 C 9.132812 49.21875 9.945312 49.21875 10.78125 49.21875 C 10.78125 48.289062 10.78125 47.363281 10.78125 46.40625 C 9.96875 46.40625 9.15625 46.40625 8.320312 46.40625 Z M 49.21875 46.40625 C 49.21875 47.335938 49.21875 48.261719 49.21875 49.21875 C 50.03125 49.21875 50.84375 49.21875 51.679688 49.21875 C 51.679688 48.289062 51.679688 47.363281 51.679688 46.40625 C 50.867188 46.40625 50.054688 46.40625 49.21875 46.40625 Z M 28.574219 48.109375 C 28.097656 48.882812 28.238281 49.675781 28.324219 50.542969 C 28.335938 50.691406 28.347656 50.839844 28.359375 50.988281 C 28.394531 51.414062 28.4375 51.839844 28.476562 52.265625 C 28.488281 52.394531 28.496094 52.519531 28.507812 52.652344 C 28.519531 52.769531 28.527344 52.882812 28.539062 53.003906 C 28.546875 53.105469 28.554688 53.207031 28.5625 53.308594 C 28.582031 53.5625 28.582031 53.5625 28.710938 53.789062 C 29.523438 53.789062 30.335938 53.789062 31.171875 53.789062 C 31.242188 53.238281 31.308594 52.683594 31.367188 52.132812 C 31.394531 51.894531 31.421875 51.660156 31.453125 51.421875 C 31.5 51.023438 31.542969 50.621094 31.582031 50.222656 C 31.605469 50.03125 31.605469 50.03125 31.632812 49.835938 C 31.71875 48.890625 31.523438 48.324219 30.9375 47.578125 C 30.625 47.25 30.457031 47.136719 30.023438 47.027344 C 29.378906 47.167969 28.964844 47.59375 28.574219 48.109375 Z M 31.992188 50.039062 C 31.917969 50.574219 31.851562 51.109375 31.789062 51.644531 C 31.769531 51.820312 31.746094 52 31.722656 52.175781 C 31.550781 53.140625 31.550781 53.140625 31.800781 54.042969 C 32.011719 54.21875 32.226562 54.351562 32.460938 54.492188 C 32.621094 54.683594 32.78125 54.875 32.929688 55.078125 C 32.867188 53.953125 32.675781 52.867188 32.453125 51.765625 C 32.421875 51.597656 32.386719 51.429688 32.355469 51.261719 C 32.273438 50.855469 32.191406 50.445312 32.109375 50.039062 C 32.070312 50.039062 32.03125 50.039062 31.992188 50.039062 Z M 27.773438 50.273438 C 27.289062 52.605469 27.289062 52.605469 26.953125 54.960938 C 27.089844 54.820312 27.226562 54.679688 27.363281 54.539062 C 27.539062 54.375 27.539062 54.375 27.929688 54.132812 C 28.292969 53.734375 28.285156 53.65625 28.265625 53.140625 C 28.238281 52.890625 28.210938 52.640625 28.175781 52.390625 C 28.164062 52.265625 28.148438 52.140625 28.136719 52.007812 C 28.070312 51.429688 27.996094 50.847656 27.890625 50.273438 C 27.851562 50.273438 27.8125 50.273438 27.773438 50.273438 Z M 8.320312 51.09375 C 8.320312 51.90625 8.320312 52.71875 8.320312 53.554688 C 8.617188 53.707031 8.914062 53.859375 9.222656 54.015625 C 9.3125 54.0625 9.40625 54.113281 9.5 54.160156 C 9.613281 54.21875 9.613281 54.21875 9.726562 54.277344 C 9.804688 54.3125 9.878906 54.351562 9.957031 54.394531 C 10.246094 54.523438 10.246094 54.523438 10.78125 54.609375 C 10.78125 53.449219 10.78125 52.289062 10.78125 51.09375 C 9.96875 51.09375 9.15625 51.09375 8.320312 51.09375 Z M 49.21875 51.09375 C 49.21875 52.253906 49.21875 53.414062 49.21875 54.609375 C 50.09375 54.324219 50.09375 54.324219 50.910156 53.957031 C 51.007812 53.910156 51.105469 53.859375 51.203125 53.8125 C 51.460938 53.675781 51.460938 53.675781 51.679688 53.4375 C 51.710938 53.1875 51.710938 53.1875 51.703125 52.902344 C 51.703125 52.808594 51.703125 52.710938 51.699219 52.617188 C 51.699219 52.496094 51.695312 52.375 51.695312 52.25 C 51.691406 51.867188 51.683594 51.488281 51.679688 51.09375 C 50.867188 51.09375 50.054688 51.09375 49.21875 51.09375 Z M 16.027344 54.363281 C 15.851562 54.632812 15.71875 54.902344 15.585938 55.195312 C 14.683594 56.171875 13.359375 56.71875 12.1875 57.304688 C 12.988281 57.746094 14.132812 57.664062 15.003906 57.453125 C 15.371094 57.308594 15.707031 57.136719 16.054688 56.953125 C 16.25 56.855469 16.445312 56.757812 16.644531 56.660156 C 18.667969 55.71875 18.667969 55.71875 20.15625 54.140625 C 19.617188 54.113281 19.082031 54.09375 18.542969 54.082031 C 18.359375 54.078125 18.175781 54.070312 17.996094 54.0625 C 16.945312 53.96875 16.945312 53.96875 16.027344 54.363281 Z M 27.707031 54.808594 C 27.328125 55.292969 26.953125 55.820312 26.953125 56.453125 C 27.136719 56.863281 27.335938 57.09375 27.75 57.285156 C 28.503906 57.554688 29.195312 57.597656 29.992188 57.589844 C 30.113281 57.59375 30.230469 57.59375 30.355469 57.597656 C 31.234375 57.597656 32.082031 57.472656 32.785156 56.902344 C 32.964844 56.710938 32.964844 56.710938 32.9375 56.359375 C 32.78125 55.554688 32.242188 54.792969 31.640625 54.257812 C 31.089844 54.074219 30.535156 54.113281 29.957031 54.109375 C 29.835938 54.109375 29.710938 54.105469 29.585938 54.105469 C 28.738281 54.101562 28.308594 54.179688 27.707031 54.808594 Z M 39.726562 54.140625 C 40.703125 55.28125 41.761719 55.898438 43.089844 56.578125 C 43.214844 56.648438 43.34375 56.714844 43.476562 56.78125 C 44.445312 57.285156 45.214844 57.582031 46.3125 57.566406 C 46.433594 57.570312 46.433594 57.570312 46.558594 57.570312 C 47.007812 57.570312 47.304688 57.519531 47.695312 57.304688 C 47.628906 57.269531 47.566406 57.238281 47.5 57.203125 C 44.429688 55.574219 44.429688 55.574219 43.710938 54.140625 C 42.394531 54.140625 41.082031 54.140625 39.726562 54.140625 Z M 32.929688 55.078125 C 33.046875 55.3125 33.046875 55.3125 33.046875 55.3125 Z M 32.929688 55.078125 " fill-opacity="1" fill-rule="nonzero"/><path fill="#11d6f0" d="M 30.730469 41.972656 C 30.929688 42.070312 30.929688 42.070312 31.132812 42.164062 C 31.207031 42.199219 31.277344 42.230469 31.351562 42.265625 C 31.578125 42.375 31.804688 42.480469 32.027344 42.589844 C 32.183594 42.664062 32.335938 42.734375 32.492188 42.808594 C 33.609375 43.335938 33.609375 43.335938 33.75 43.476562 C 33.757812 43.695312 33.761719 43.910156 33.757812 44.128906 C 33.757812 44.246094 33.753906 44.367188 33.753906 44.488281 C 33.753906 44.578125 33.75 44.671875 33.75 44.765625 C 33.417969 44.902344 33.296875 44.890625 32.957031 44.753906 C 32.835938 44.6875 32.714844 44.625 32.585938 44.558594 C 31.054688 43.695312 31.054688 43.695312 29.390625 43.542969 C 28.96875 43.699219 28.589844 43.917969 28.214844 44.164062 C 27.894531 44.367188 27.550781 44.5 27.203125 44.640625 C 27.09375 44.6875 26.984375 44.734375 26.875 44.785156 C 26.601562 44.882812 26.601562 44.882812 26.25 44.882812 C 26.25 44.378906 26.25 43.878906 26.25 43.359375 C 26.71875 43.140625 27.191406 42.921875 27.664062 42.707031 C 27.824219 42.636719 27.984375 42.5625 28.144531 42.488281 C 28.375 42.378906 28.605469 42.273438 28.835938 42.167969 C 28.976562 42.105469 29.113281 42.042969 29.257812 41.976562 C 29.820312 41.773438 30.167969 41.769531 30.730469 41.972656 Z M 29.066406 42.613281 C 28.929688 42.675781 28.792969 42.738281 28.652344 42.804688 C 28.507812 42.871094 28.363281 42.941406 28.21875 43.007812 C 28.074219 43.074219 27.929688 43.144531 27.785156 43.210938 C 27.429688 43.378906 27.074219 43.542969 26.71875 43.710938 C 26.71875 43.867188 26.71875 44.019531 26.71875 44.179688 C 27.136719 44.109375 27.488281 43.996094 27.875 43.816406 C 27.980469 43.769531 28.085938 43.722656 28.195312 43.671875 C 28.417969 43.570312 28.636719 43.46875 28.859375 43.367188 C 28.964844 43.320312 29.070312 43.273438 29.179688 43.222656 C 29.273438 43.179688 29.371094 43.136719 29.46875 43.089844 C 30.074219 42.921875 30.597656 43.15625 31.152344 43.394531 C 31.277344 43.445312 31.402344 43.496094 31.53125 43.550781 C 31.660156 43.605469 31.785156 43.660156 31.917969 43.71875 C 32.050781 43.773438 32.179688 43.828125 32.316406 43.886719 C 32.636719 44.023438 32.960938 44.160156 33.28125 44.296875 C 33.28125 44.105469 33.28125 43.910156 33.28125 43.710938 C 32.835938 43.511719 32.394531 43.308594 31.949219 43.109375 C 31.796875 43.042969 31.648438 42.972656 31.496094 42.90625 C 31.277344 42.808594 31.0625 42.710938 30.84375 42.613281 C 30.714844 42.554688 30.582031 42.496094 30.449219 42.433594 C 29.878906 42.210938 29.59375 42.363281 29.066406 42.613281 Z M 29.066406 42.613281 " fill-opacity="1" fill-rule="nonzero"/><path fill="#11d6f0" d="M 31.226562 39.691406 C 31.367188 39.753906 31.503906 39.816406 31.648438 39.878906 C 31.722656 39.910156 31.792969 39.945312 31.867188 39.976562 C 32.089844 40.078125 32.308594 40.179688 32.53125 40.277344 C 33.613281 40.761719 33.613281 40.761719 33.75 40.898438 C 33.757812 41.136719 33.761719 41.371094 33.757812 41.609375 C 33.757812 41.738281 33.753906 41.867188 33.753906 42 C 33.753906 42.101562 33.75 42.203125 33.75 42.304688 C 32.824219 42.246094 32.050781 41.8125 31.222656 41.417969 C 30.347656 41.011719 30.347656 41.011719 29.414062 41.132812 C 28.949219 41.316406 28.496094 41.519531 28.042969 41.726562 C 27.804688 41.835938 27.566406 41.945312 27.324219 42.050781 C 27.21875 42.101562 27.113281 42.148438 27.007812 42.199219 C 26.71875 42.304688 26.71875 42.304688 26.25 42.304688 C 26.25 41.839844 26.25 41.375 26.25 40.898438 C 27.164062 40.429688 28.082031 39.964844 29.019531 39.542969 C 29.144531 39.484375 29.273438 39.425781 29.402344 39.367188 C 30.070312 39.164062 30.609375 39.414062 31.226562 39.691406 Z M 29.179688 40.035156 C 29.074219 40.082031 29.074219 40.082031 28.96875 40.128906 C 28.742188 40.230469 28.519531 40.328125 28.292969 40.429688 C 28.140625 40.496094 27.988281 40.566406 27.835938 40.632812 C 27.464844 40.800781 27.089844 40.964844 26.71875 41.132812 C 26.71875 41.328125 26.71875 41.519531 26.71875 41.71875 C 27.574219 41.398438 28.410156 41.070312 29.222656 40.65625 C 30.160156 40.328125 30.886719 40.742188 31.734375 41.132812 C 31.976562 41.242188 32.21875 41.351562 32.464844 41.460938 C 32.570312 41.511719 32.675781 41.5625 32.785156 41.609375 C 33.035156 41.734375 33.035156 41.734375 33.28125 41.71875 C 33.277344 41.4375 33.277344 41.4375 33.164062 41.132812 C 32.855469 40.921875 32.855469 40.921875 32.464844 40.769531 C 32.324219 40.707031 32.179688 40.644531 32.035156 40.582031 C 31.882812 40.519531 31.734375 40.457031 31.582031 40.394531 C 31.429688 40.328125 31.28125 40.261719 31.128906 40.199219 C 30.148438 39.734375 30.148438 39.734375 29.179688 40.035156 Z M 29.179688 40.035156 " fill-opacity="1" fill-rule="nonzero"/><path fill="#11d6f0" d="M 46.339844 22.683594 C 47.066406 23.121094 47.53125 23.742188 47.765625 24.554688 C 47.90625 25.410156 47.78125 26.160156 47.28125 26.867188 C 46.769531 27.472656 46.191406 27.890625 45.394531 27.984375 C 44.554688 28.054688 43.808594 27.863281 43.140625 27.339844 C 42.507812 26.726562 42.277344 26.148438 42.238281 25.269531 C 42.265625 24.515625 42.421875 23.917969 42.890625 23.320312 C 43.84375 22.5 45.140625 22.140625 46.339844 22.683594 Z M 43.292969 23.640625 C 42.765625 24.347656 42.652344 25.023438 42.773438 25.898438 C 43.089844 26.648438 43.550781 27.113281 44.296875 27.421875 C 44.992188 27.621094 45.539062 27.527344 46.171875 27.1875 C 46.855469 26.75 47.140625 26.238281 47.335938 25.460938 C 47.390625 24.839844 47.199219 24.3125 46.875 23.789062 C 46.34375 23.269531 45.847656 22.953125 45.101562 22.933594 C 44.367188 22.941406 43.800781 23.082031 43.292969 23.640625 Z M 43.292969 23.640625 " fill-opacity="1" fill-rule="nonzero"/><path fill="#11d6f0" d="M 16.222656 22.683594 C 16.921875 23.105469 17.390625 23.714844 17.640625 24.488281 C 17.8125 25.242188 17.714844 25.921875 17.34375 26.601562 C 16.863281 27.277344 16.386719 27.765625 15.558594 27.949219 C 14.632812 28.089844 13.878906 27.90625 13.089844 27.414062 C 12.480469 26.75 12.15625 26.089844 12.121094 25.179688 C 12.160156 24.367188 12.410156 23.855469 12.917969 23.234375 C 13.871094 22.453125 15.046875 22.160156 16.222656 22.683594 Z M 12.941406 24.03125 C 12.554688 24.554688 12.59375 25.160156 12.65625 25.78125 C 12.84375 26.507812 13.269531 26.910156 13.902344 27.289062 C 14.507812 27.578125 15.003906 27.59375 15.652344 27.429688 C 16.382812 27.152344 16.8125 26.589844 17.167969 25.914062 C 17.289062 25.15625 17.25 24.503906 16.800781 23.863281 C 16.359375 23.34375 15.960938 23.015625 15.273438 22.929688 C 14.175781 22.890625 13.640625 23.214844 12.941406 24.03125 Z M 12.941406 24.03125 " fill-opacity="1" fill-rule="nonzero"/><path fill="#11d6f0" d="M 15.351562 23.671875 C 15.753906 23.816406 15.988281 23.949219 16.273438 24.265625 C 16.46875 24.773438 16.484375 25.242188 16.40625 25.78125 C 16.164062 26.265625 15.96875 26.515625 15.46875 26.71875 C 14.96875 26.789062 14.539062 26.773438 14.078125 26.574219 C 13.636719 26.210938 13.464844 25.953125 13.375 25.386719 C 13.335938 24.875 13.40625 24.566406 13.710938 24.140625 C 14.238281 23.675781 14.671875 23.5625 15.351562 23.671875 Z M 13.945312 24.726562 C 13.800781 25.15625 13.785156 25.339844 13.972656 25.753906 C 14.265625 26.125 14.457031 26.242188 14.925781 26.300781 C 15.363281 26.28125 15.363281 26.28125 15.695312 26.015625 C 15.964844 25.625 16.03125 25.417969 16.003906 24.953125 C 15.878906 24.523438 15.605469 24.359375 15.234375 24.140625 C 14.59375 24.011719 14.328125 24.222656 13.945312 24.726562 Z M 13.945312 24.726562 " fill-opacity="1" fill-rule="nonzero"/><path fill="#11d6f0" d="M 45.46875 23.671875 C 45.949219 23.878906 46.261719 24.152344 46.523438 24.609375 C 46.601562 25.148438 46.589844 25.617188 46.382812 26.125 C 46.058594 26.496094 45.808594 26.683594 45.3125 26.761719 C 44.796875 26.789062 44.417969 26.785156 44.003906 26.457031 C 43.550781 25.953125 43.421875 25.660156 43.441406 24.964844 C 43.519531 24.449219 43.820312 24.128906 44.207031 23.804688 C 44.640625 23.625 45.007812 23.601562 45.46875 23.671875 Z M 44.0625 24.609375 C 43.894531 24.945312 43.910156 25.175781 43.945312 25.546875 C 44.15625 25.863281 44.308594 26.078125 44.648438 26.25 C 45.15625 26.308594 45.390625 26.304688 45.8125 26.007812 C 46.117188 25.574219 46.136719 25.363281 46.054688 24.84375 C 45.84375 24.519531 45.695312 24.3125 45.351562 24.140625 C 44.753906 24.074219 44.492188 24.191406 44.0625 24.609375 Z M 44.0625 24.609375 " fill-opacity="1" fill-rule="nonzero"/></svg>