<svg xmlns="http://www.w3.org/2000/svg" xmlns:xlink="http://www.w3.org/1999/xlink" width="80" zoomAndPan="magnify" viewBox="0 0 60 60" height="80" preserveAspectRatio="xMidYMid meet" version="1.0"><path fill="#11d6f0" d="M 43.347656 37.289062 C 48.539062 43.652344 50.929688 48.867188 49.722656 51.199219 C 48.796875 52.96875 43.078125 56.425781 38.871094 57.75 C 35.402344 58.839844 30.855469 59.308594 27.105469 58.945312 C 22.628906 58.511719 18.09375 56.90625 14.203125 54.375 C 10.933594 52.242188 10.195312 51.363281 10.195312 49.617188 C 10.195312 46.113281 14.050781 39.972656 20.648438 32.964844 C 24.398438 28.992188 29.613281 24.328125 30.1875 24.457031 C 31.289062 24.703125 40.066406 33.257812 43.347656 37.289062 Z M 22.101562 16.851562 C 18.621094 13.699219 15.292969 10.535156 11.976562 9.421875 C 10.195312 8.824219 10.066406 8.859375 8.613281 10.371094 C 5.191406 13.933594 2.34375 19.710938 1.546875 24.714844 C 0.914062 28.722656 0.832031 29.847656 1.054688 31.804688 C 1.710938 37.722656 3.082031 41.8125 5.800781 45.972656 C 6.914062 47.683594 7.21875 48 6.890625 47.132812 C 6.398438 45.84375 6.855469 42.738281 8.003906 39.632812 C 9.679688 35.0625 14.320312 26.402344 22.101562 16.851562 Z M 58.617188 24.292969 C 56.636719 14.917969 50.707031 9.023438 49.875 9.023438 C 49.019531 9.023438 47.039062 9.785156 45.65625 10.652344 C 42.925781 12.351562 40.851562 14.332031 38.121094 16.839844 C 43.089844 23.085938 50.097656 33.175781 52.523438 40.546875 C 53.320312 42.972656 53.660156 45.363281 53.390625 46.675781 C 53.191406 47.671875 53.191406 47.671875 53.554688 47.214844 C 54.269531 46.3125 55.886719 43.546875 56.53125 42.117188 C 57.398438 40.21875 58.289062 37.40625 58.710938 35.238281 C 59.214844 32.601562 59.167969 26.941406 58.617188 24.292969 Z M 16.558594 5.039062 C 22.148438 4.746094 29.414062 9.082031 29.953125 9.1875 C 30.035156 9.199219 31.171875 8.695312 32.484375 8.050781 C 39.972656 4.40625 43.5 5.027344 45.070312 5.097656 C 37.582031 0.492188 27.175781 -0.761719 17.660156 3.726562 C 14.917969 5.027344 14.847656 5.121094 16.558594 5.039062 Z M 16.558594 5.039062 " fill-opacity="1" fill-rule="nonzero"/></svg>